<svg width="24" height="24" viewBox="0 0 24 24" fill="none" xmlns="http://www.w3.org/2000/svg">
    <g id="arrow_back_ios_new">
        <mask id="mask0_187_4730" style="mask-type:alpha" maskUnits="userSpaceOnUse" x="0" y="0" width="24" height="24">
            <rect id="Bounding box" y="24" width="24" height="24" transform="rotate(-90 0 24)" fill="#D9D9D9"/>
        </mask>
        <g mask="url(#mask0_187_4730)">
            <path id="arrow_back_ios_new_2"
                  d="M11.9996 14.45L19.3496 7.10005C19.5996 6.85005 19.8913 6.72922 20.2246 6.73755C20.558 6.74588 20.8496 6.87505 21.0996 7.12505C21.3496 7.37505 21.4746 7.66672 21.4746 8.00005C21.4746 8.33338 21.3496 8.62505 21.0996 8.87505L13.4246 16.575C13.2246 16.775 12.9996 16.925 12.7496 17.025C12.4996 17.125 12.2496 17.175 11.9996 17.175C11.7496 17.175 11.4996 17.125 11.2496 17.025C10.9996 16.925 10.7746 16.775 10.5746 16.575L2.87462 8.87505C2.62462 8.62505 2.50379 8.32922 2.51212 7.98755C2.52046 7.64588 2.64962 7.35005 2.89962 7.10005C3.14962 6.85005 3.44129 6.72505 3.77462 6.72505C4.10796 6.72505 4.39962 6.85005 4.64962 7.10005L11.9996 14.45Z"
                  fill="#999999"/>
        </g>
    </g>
</svg>
