<svg width="90" height="76" viewBox="0 0 90 76" fill="none" xmlns="http://www.w3.org/2000/svg">
    <g id="content">
        <path id="Vector"
              d="M30.6315 46.4206C30.3501 46.4206 30.0672 46.3363 29.8224 46.1599C29.1986 45.7125 29.0563 44.8446 29.5037 44.2216L40.0824 29.4976L35.5699 26.2575L24.7234 41.3558C24.2752 41.9796 23.405 42.1219 22.7851 41.6745C22.1612 41.227 22.019 40.3592 22.4664 39.7361L34.1235 23.5093C34.5701 22.8855 35.4412 22.7432 36.0618 23.1907L42.8298 28.052C43.1294 28.2674 43.332 28.5916 43.3916 28.9548C43.4496 29.3188 43.363 29.6915 43.1484 29.9896L31.7608 45.8412C31.4898 46.2195 31.0638 46.4206 30.6315 46.4206Z"
              fill="#999999"/>
        <path id="Vector_2"
              d="M18.6111 75.2686C8.65554 75.2686 0.555664 67.1687 0.555664 57.2132C0.555664 47.2576 8.65554 39.1577 18.6111 39.1577C27.2331 39.1577 34.6869 45.2906 36.3328 53.741C36.4798 54.4936 35.9886 55.2232 35.236 55.3694C34.4834 55.5156 33.7531 55.0253 33.6068 54.2727C32.2137 47.1233 25.9067 41.9353 18.6111 41.9353C10.187 41.9353 3.33324 48.789 3.33324 57.2132C3.33324 65.6373 10.187 72.491 18.6111 72.491C24.9125 72.491 30.4883 68.7065 32.8161 62.8494C33.1006 62.1365 33.908 61.79 34.6201 62.0713C35.3338 62.3543 35.6803 63.1633 35.3982 63.8754C32.6484 70.7967 26.0585 75.2686 18.6111 75.2686Z"
              fill="#E99531"/>
        <path id="Vector_3"
              d="M44.9998 36.3793C42.9311 36.3793 40.9053 36.032 38.9741 35.3486C38.2509 35.0926 37.8727 34.2987 38.1286 33.5763C38.3821 32.8531 39.1776 32.4748 39.9016 32.7307C41.5332 33.3085 43.249 33.6017 44.9998 33.6017C53.4239 33.6017 60.2776 26.748 60.2776 18.3239C60.2776 9.89975 53.4239 3.04601 44.9998 3.04601C36.5757 3.04601 29.7219 9.89975 29.7219 18.3239C29.7219 21.5465 30.7121 24.6269 32.5869 27.232C33.0359 27.8551 32.8929 28.7229 32.2706 29.1703C31.6483 29.6178 30.7813 29.4771 30.3323 28.8548C28.1158 25.7745 26.9443 22.133 26.9443 18.3239C26.9443 8.36831 35.0442 0.268433 44.9998 0.268433C54.9553 0.268433 63.0552 8.36831 63.0552 18.3239C63.0552 28.2794 54.9553 36.3793 44.9998 36.3793Z"
              fill="#E99531"/>
        <path id="Vector_4"
              d="M71.3889 75.2686C61.4334 75.2686 53.3335 67.1687 53.3335 57.2132C53.3335 53.0988 54.7537 49.0735 57.3334 45.8779C57.8118 45.2811 58.69 45.1865 59.2868 45.6689C59.8836 46.1505 59.9766 47.0247 59.4958 47.6224C57.3127 50.3268 56.1111 53.733 56.1111 57.2132C56.1111 65.6373 62.9648 72.491 71.3889 72.491C79.8131 72.491 86.6668 65.6373 86.6668 57.2132C86.6668 48.789 79.8131 41.9353 71.3889 41.9353C69.9441 41.9353 68.5176 42.1356 67.1459 42.5321C66.4084 42.7435 65.6391 42.3207 65.4261 41.5824C65.2139 40.8465 65.6391 40.0756 66.3758 39.8626C67.9962 39.3945 69.6842 39.1577 71.3889 39.1577C81.3445 39.1577 89.4444 47.2576 89.4444 57.2132C89.4444 67.1687 81.3445 75.2686 71.3889 75.2686Z"
              fill="#E99531"/>
        <path id="Vector_5"
              d="M64.4203 55.3843C63.988 55.3843 63.562 55.1833 63.291 54.805L49.0423 34.9725C48.7848 34.6133 48.7125 34.1524 48.8508 33.732C48.9883 33.31 49.3189 32.9801 49.7393 32.8427C52.1783 32.0471 54.4059 30.6198 56.1782 28.7125C56.4611 28.4081 56.8537 28.2587 57.2836 28.2714C57.6985 28.2968 58.0815 28.509 58.3239 28.8476L72.3159 48.3248C72.5305 48.6228 72.6171 48.9963 72.5583 49.3595C72.4987 49.7227 72.2968 50.0469 71.9972 50.2631L65.2293 55.1237C64.9845 55.3001 64.7008 55.3843 64.4203 55.3843ZM52.346 34.8104L64.7366 52.0576L69.2491 48.8167L57.011 31.7817C55.6163 33.0278 54.0388 34.0522 52.346 34.8104Z"
              fill="#999999"/>
        <path id="Vector_6"
              d="M55.691 64.1574H26.9448C26.1771 64.1574 25.5557 63.5359 25.5557 62.7682V54.4347C25.5557 53.6669 26.1771 53.0463 26.9448 53.0463H54.9725C55.3802 53.0463 55.7681 53.2267 56.0327 53.5374C56.2966 53.8489 56.4102 54.2614 56.3427 54.6643C56.1877 55.5894 56.1122 56.4231 56.1122 57.213C56.1122 58.9249 56.4102 60.6391 57.0007 62.3049C57.1509 62.7308 57.0857 63.2021 56.8251 63.5701C56.5644 63.9388 56.1416 64.1574 55.691 64.1574ZM28.334 61.3798H53.8313C53.5007 60.0041 53.3338 58.6094 53.3338 57.213C53.3338 56.7608 53.3545 56.2999 53.395 55.8238H28.334V61.3798Z"
              fill="#999999"/>
    </g>
</svg>
