<svg width="82" height="90" viewBox="0 0 82 90" fill="none" xmlns="http://www.w3.org/2000/svg">
    <g id="content">
        <path id="Vector"
              d="M79.7283 89.4442H2.27164C1.41624 89.4442 0.722168 88.7464 0.722168 87.8845V73.7492C0.722168 65.3283 8.21777 58.4771 17.4313 58.4771L28.0063 58.0264C28.8812 57.9613 29.5841 58.6582 29.6196 59.5193C29.6559 60.3795 28.9911 61.1058 28.1366 61.1424L17.496 61.5948C9.9268 61.5957 3.82111 67.0487 3.82111 73.7492V86.3247H78.1797V73.7492C78.1797 67.0478 72.0731 61.5957 64.5686 61.5957L54.1966 61.1558C53.3412 61.1192 52.6773 60.3929 52.7136 59.5327C52.7499 58.6707 53.5007 58.0202 54.3269 58.0398L64.6342 58.4788H64.6369C73.7848 58.4788 81.2777 65.3283 81.2777 73.7492V87.8845C81.2777 88.7464 80.5837 89.4442 79.7283 89.4442Z"
              fill="#E99531"/>
        <path id="Vector_2"
              d="M41.0002 64.3726C36.5849 64.3726 32.1696 63.7391 28.1444 62.472C27.4982 62.2694 27.0576 61.6662 27.0576 60.9845V52.0157C27.0576 51.1537 27.7517 50.4559 28.6071 50.4559C29.4625 50.4559 30.1557 51.1537 30.1557 52.0157V59.8191C37.029 61.7385 44.9714 61.7385 51.8438 59.8191V52.7117C51.8438 51.8497 52.5379 51.1528 53.3933 51.1528C54.2487 51.1528 54.9419 51.8497 54.9419 52.7117V60.9845C54.9419 61.6662 54.5022 62.2694 53.8551 62.472C49.8307 63.7391 45.4146 64.3726 41.0002 64.3726Z"
              fill="#E99531"/>
        <path id="Vector_3"
              d="M41.0004 56.696C25.6245 56.696 13.1152 44.1027 13.1152 28.6253C13.1152 13.1489 25.6245 0.555542 41.0004 0.555542C56.3754 0.555542 68.8846 13.1489 68.8846 28.6253C68.8846 44.1027 56.3754 56.696 41.0004 56.696ZM41.0004 3.67421C27.3335 3.67421 16.2142 14.8675 16.2142 28.6253C16.2142 42.3832 27.3335 53.5765 41.0004 53.5765C54.6673 53.5765 65.7866 42.3832 65.7866 28.6253C65.7866 14.8675 54.6673 3.67421 41.0004 3.67421Z"
              fill="#E99531"/>
        <path id="Vector_4"
              d="M41.0005 48.8982C29.8954 48.8982 20.8618 39.8036 20.8618 28.6255C20.8618 17.4473 29.8954 8.35278 41.0005 8.35278C52.1056 8.35278 61.1391 17.4473 61.1391 28.6255C61.1391 39.8036 52.1056 48.8982 41.0005 48.8982ZM41.0005 11.4715C31.6035 11.4715 23.9599 19.1668 23.9599 28.6255C23.9599 38.085 31.6035 45.7795 41.0005 45.7795C50.3966 45.7795 58.0411 38.085 58.0411 28.6255C58.0411 19.1668 50.3966 11.4715 41.0005 11.4715Z"
              fill="#999999"/>
        <path id="Vector_5"
              d="M35.9888 20.0073C35.9888 19.8431 36.0969 19.7351 36.2591 19.7351H43.1121C47.0141 19.7351 48.8552 21.6982 48.8552 24.6705C48.8552 26.7711 47.8801 27.9695 46.7163 28.5968V28.6521C47.8536 29.0884 49.1805 30.5617 49.1805 32.8246C49.1805 36.5054 46.8776 38.2776 42.8417 38.2776H36.2591C36.0969 38.2776 35.9888 38.1678 35.9888 38.0054V20.0073ZM43.0323 27.451C44.6562 27.451 45.6597 26.4704 45.6597 25.0248C45.6597 23.5525 44.6562 22.57 43.0323 22.57H39.3465C39.2393 22.57 39.1843 22.6253 39.1843 22.7333V27.2886C39.1843 27.3966 39.2393 27.451 39.3465 27.451H43.0323ZM39.3465 35.4418H43.1936C44.9815 35.4418 45.9832 34.4049 45.9832 32.8514C45.9832 31.3237 44.9815 30.2868 43.1936 30.2868H39.3465C39.2393 30.2868 39.1843 30.3422 39.1843 30.451V35.2776C39.1843 35.3873 39.2393 35.4418 39.3465 35.4418Z"
              fill="#999999"/>
        <path id="Vector_6"
              d="M41.0002 22.3879C40.1448 22.3879 39.4507 21.6901 39.4507 20.8281V17.7094C39.4507 16.8475 40.1448 16.1497 41.0002 16.1497C41.8556 16.1497 42.5487 16.8475 42.5487 17.7094V20.8281C42.5487 21.6901 41.8556 22.3879 41.0002 22.3879Z"
              fill="#999999"/>
        <path id="Vector_7"
              d="M41.0002 41.1008C40.1448 41.1008 39.4507 40.4039 39.4507 39.5419V37.9821C39.4507 37.1202 40.1448 36.4224 41.0002 36.4224C41.8556 36.4224 42.5487 37.1202 42.5487 37.9821V39.5419C42.5487 40.4039 41.8556 41.1008 41.0002 41.1008Z"
              fill="#999999"/>
    </g>
</svg>
