<svg width="84" height="90" viewBox="0 0 84 90" fill="none" xmlns="http://www.w3.org/2000/svg">
    <g id="content">
        <path id="Vector"
              d="M29.1211 74.6292C15.1644 74.6292 0.333008 70.995 0.333008 64.2592V55.3701C0.333008 54.5512 1.01012 53.8892 1.84762 53.8892C2.68513 53.8892 3.36311 54.5512 3.36311 55.3701V64.2592C3.36311 67.3524 13.1626 71.6664 29.1211 71.6664C32.0515 71.6664 34.9255 71.513 37.6626 71.2121C38.4871 71.1222 39.2448 71.7071 39.3376 72.5201C39.4312 73.333 38.8322 74.0646 38.0007 74.1578C35.1518 74.4698 32.1642 74.6292 29.1211 74.6292Z"
              fill="#E99531"/>
        <path id="Vector_2"
              d="M29.1211 65.7406C15.1644 65.7406 0.333008 62.1065 0.333008 55.3698V46.4807C0.333008 45.6618 1.01012 44.9998 1.84762 44.9998C2.68513 44.9998 3.36311 45.6618 3.36311 46.4807V55.3698C3.36311 58.463 13.1626 62.777 29.1211 62.777C31.4394 62.777 33.7378 62.6804 35.9512 62.4914C36.8078 62.4057 37.5213 63.0237 37.5932 63.8367C37.6669 64.6522 37.0496 65.3719 36.2173 65.4422C33.9146 65.6406 31.527 65.7406 29.1211 65.7406Z"
              fill="#E99531"/>
        <path id="Vector_3"
              d="M56.3934 45.0001C55.5559 45.0001 54.8779 44.3372 54.8779 43.5184V37.5929C54.8779 36.774 55.5559 36.1111 56.3934 36.1111C57.2309 36.1111 57.9089 36.774 57.9089 37.5929V43.5184C57.9089 44.3372 57.2309 45.0001 56.3934 45.0001Z"
              fill="#E99531"/>
        <path id="Vector_4"
              d="M29.1211 56.8519C15.1644 56.8519 0.333008 53.2178 0.333008 46.4811V37.5929C0.333008 36.774 1.01012 36.1111 1.84762 36.1111C2.68513 36.1111 3.36311 36.774 3.36311 37.5929V46.4811C3.36311 49.5744 13.1626 53.8892 29.1211 53.8892C32.4677 53.8892 35.7301 53.6908 38.8209 53.2984C39.6523 53.1856 40.4118 53.7646 40.5184 54.5758C40.6259 55.3871 40.0416 56.1314 39.2119 56.2348C35.9928 56.6451 32.5968 56.8519 29.1211 56.8519Z"
              fill="#E99531"/>
        <path id="Vector_5"
              d="M29.1211 47.9625C15.1644 47.9625 0.333008 44.3284 0.333008 37.5925V28.7035C0.333008 27.8846 1.01012 27.2217 1.84762 27.2217C2.68513 27.2217 3.36311 27.8846 3.36311 28.7035V37.5925C3.36311 40.6858 13.1626 44.9998 29.1211 44.9998C45.0788 44.9998 54.8782 40.6858 54.8782 37.5925V28.7035C54.8782 27.8846 55.5562 27.2217 56.3937 27.2217C57.2312 27.2217 57.9092 27.8846 57.9092 28.7035V37.5925C57.9092 44.3284 43.0769 47.9625 29.1211 47.9625Z"
              fill="#E99531"/>
        <path id="Vector_6"
              d="M29.1211 39.0736C15.1644 39.0736 0.333008 35.4395 0.333008 28.7036V19.8146C0.333008 18.9957 1.01012 18.3336 1.84762 18.3336C2.68513 18.3336 3.36311 18.9957 3.36311 19.8146V28.7036C3.36311 31.7969 13.1626 36.1109 29.1211 36.1109C45.0788 36.1109 54.8782 31.7969 54.8782 28.7036V19.8146C54.8782 18.9957 55.5562 18.3336 56.3937 18.3336C57.2312 18.3336 57.9092 18.9957 57.9092 19.8146V28.7036C57.9092 35.4395 43.0769 39.0736 29.1211 39.0736Z"
              fill="#E99531"/>
        <path id="Vector_7"
              d="M29.1211 30.1854C15.1644 30.1854 0.333008 26.5513 0.333008 19.8146V10.9255C0.333008 10.1066 1.01012 9.44458 1.84762 9.44458C2.68513 9.44458 3.36311 10.1066 3.36311 10.9255V19.8146C3.36311 22.9079 13.1626 27.2219 29.1211 27.2219C45.0788 27.2219 54.8782 22.9079 54.8782 19.8146V10.9255C54.8782 10.1066 55.5562 9.44458 56.3937 9.44458C57.2312 9.44458 57.9092 10.1066 57.9092 10.9255V19.8146C57.9092 26.5513 43.0769 30.1854 29.1211 30.1854Z"
              fill="#E99531"/>
        <path id="Vector_8"
              d="M29.1211 21.2964C15.1644 21.2964 0.333008 17.6623 0.333008 10.9255C0.333008 4.18966 15.1644 0.555542 29.1211 0.555542C43.0769 0.555542 57.9092 4.18966 57.9092 10.9255C57.9092 17.6623 43.0769 21.2964 29.1211 21.2964ZM29.1211 3.51828C13.1626 3.51828 3.36311 7.83226 3.36311 10.9255C3.36311 14.0188 13.1626 18.3337 29.1211 18.3337C45.0788 18.3337 54.8782 14.0188 54.8782 10.9255C54.8782 7.83226 45.0788 3.51828 29.1211 3.51828Z"
              fill="#E99531"/>
        <path id="Vector_9"
              d="M59.4242 89.4444C46.057 89.4444 35.1816 78.8108 35.1816 65.7408C35.1816 52.6709 46.057 42.0372 59.4242 42.0372C72.7913 42.0372 83.6667 52.6709 83.6667 65.7408C83.6667 78.8108 72.7913 89.4444 59.4242 89.4444ZM59.4242 45C47.7277 45 38.2117 54.3036 38.2117 65.7408C38.2117 77.1772 47.7277 86.4808 59.4242 86.4808C71.1206 86.4808 80.6366 77.1772 80.6366 65.7408C80.6366 54.3036 71.1206 45 59.4242 45Z"
              fill="#999999"/>
        <path id="Vector_10"
              d="M59.4235 84.9999C48.5628 84.9999 39.7266 76.3601 39.7266 65.7409C39.7266 55.1216 48.5628 46.481 59.4235 46.481C70.2842 46.481 79.1204 55.1216 79.1204 65.7409C79.1204 76.3601 70.2842 84.9999 59.4235 84.9999ZM59.4235 49.4445C50.2335 49.4445 42.7567 56.7543 42.7567 65.7409C42.7567 74.7266 50.2335 82.0363 59.4235 82.0363C68.6135 82.0363 76.0903 74.7266 76.0903 65.7409C76.0903 56.7543 68.6135 49.4445 59.4235 49.4445Z"
              fill="#999999"/>
        <path id="Vector_11"
              d="M54.5215 57.5537C54.5215 57.3969 54.6281 57.2943 54.7868 57.2943H61.4894C65.305 57.2943 67.1057 59.1593 67.1057 61.9838C67.1057 63.9785 66.1529 65.117 65.0137 65.7129V65.7655C66.1269 66.1808 67.4239 67.5795 67.4239 69.7293C67.4239 73.2261 65.1723 74.9105 61.2241 74.9105H54.7868C54.6281 74.9105 54.5215 74.8062 54.5215 74.6511V57.5537ZM61.4105 64.6253C62.9997 64.6253 63.9811 63.6928 63.9811 62.3204C63.9811 60.9217 62.9997 59.9883 61.4105 59.9883H57.8065C57.7016 59.9883 57.6478 60.04 57.6478 60.1426V64.4702C57.6478 64.5727 57.7016 64.6253 57.8065 64.6253H61.4105ZM57.8065 72.2157H61.5692C63.3179 72.2157 64.2976 71.2306 64.2976 69.7548C64.2976 68.3035 63.3179 67.3184 61.5692 67.3184H57.8065C57.7016 67.3184 57.6478 67.371 57.6478 67.4753V72.0597C57.6478 72.1639 57.7016 72.2157 57.8065 72.2157Z"
              fill="#999999"/>
        <path id="Vector_12"
              d="M59.4238 59.8146C58.5863 59.8146 57.9092 59.1517 57.9092 58.3328V55.3701C57.9092 54.5512 58.5863 53.8892 59.4238 53.8892C60.2613 53.8892 60.9393 54.5512 60.9393 55.3701V58.3328C60.9393 59.1517 60.2613 59.8146 59.4238 59.8146Z"
              fill="#999999"/>
        <path id="Vector_13"
              d="M59.4238 77.5926C58.5863 77.5926 57.9092 76.9297 57.9092 76.1108V74.629C57.9092 73.8101 58.5863 73.1481 59.4238 73.1481C60.2613 73.1481 60.9393 73.8101 60.9393 74.629V76.1108C60.9393 76.9297 60.2613 77.5926 59.4238 77.5926Z"
              fill="#999999"/>
    </g>
</svg>
