<svg width="82" height="90" viewBox="0 0 82 90" fill="none" xmlns="http://www.w3.org/2000/svg">
    <g id="content">
        <path id="Vector"
              d="M44.053 27.2222C43.2102 27.2222 42.5264 26.5592 42.5264 25.7404V10.9257C42.5229 10.9774 42.5142 10.8934 42.5107 10.8324C42.4758 10.2627 42.7814 9.72444 43.2958 9.44809C43.8111 9.16919 44.4416 9.20649 44.921 9.53964L50.7967 13.6138C51.4604 14.0707 52.4559 13.9088 52.9258 13.2679C53.4148 12.6016 53.255 11.6759 52.5703 11.2003L41.888 3.79297C41.3588 3.42676 40.6453 3.42421 40.1117 3.79382L29.4294 11.2003C28.7447 11.6759 28.5858 12.6016 29.074 13.2679C29.5621 13.9317 30.5193 14.0834 31.2083 13.6104L37.0796 9.53964C37.5573 9.20649 38.1904 9.17088 38.7048 9.44809C39.2192 9.72444 39.5249 10.2627 39.4899 10.8324C39.4882 10.8714 39.4751 10.9858 39.4698 11.0257L39.4742 25.7404C39.4742 26.5592 38.7904 27.2222 37.9477 27.2222C37.1049 27.2222 36.422 26.5592 36.422 25.7404V13.6367L32.9777 16.0238C30.9184 17.4446 28.0522 16.98 26.5903 14.9879C25.1231 12.9975 25.6008 10.2153 27.6548 8.79026L38.3389 1.38291C39.9327 0.280034 42.0723 0.280034 43.6608 1.38122L54.3449 8.79026C56.3998 10.2153 56.8775 12.9975 55.4095 14.9896C53.9982 16.9105 51.0132 17.4014 49.0247 16.0255L45.5786 13.6367V25.7404C45.5786 26.5592 44.8957 27.2222 44.053 27.2222Z"
              fill="#E99531"/>
        <path id="Vector_2"
              d="M40.9996 89.4444C40.0669 89.4444 39.1342 89.1698 38.3395 88.6188L27.6555 81.2097C25.6006 79.7839 25.1229 77.0025 26.5909 75.0104C28.0511 73.0191 30.9129 72.5537 32.9739 73.9728L36.4217 76.3625V64.2588C36.4217 63.4399 37.1047 62.7778 37.9474 62.7778C38.7901 62.7778 39.474 63.4399 39.474 64.2588V79.0735C39.4818 79.0235 39.4853 79.1057 39.4897 79.1667C39.5246 79.7364 39.2189 80.2747 38.7046 80.5511C38.1884 80.8274 37.557 80.7927 37.0793 80.4595L31.2037 76.3854C30.519 75.9166 29.561 76.0692 29.0755 76.7304C28.5855 77.3976 28.7445 78.3233 29.43 78.7988L40.1123 86.2062C40.6433 86.5758 41.3568 86.5766 41.8887 86.2053L52.571 78.7988C53.2548 78.3233 53.4146 77.3976 52.9255 76.7312C52.4539 76.0912 51.4619 75.9259 50.7947 76.3871L44.9208 80.4595C44.4431 80.7927 43.8108 80.8291 43.2947 80.5511C42.7803 80.2747 42.4755 79.7364 42.5104 79.1667C42.5122 79.1277 42.5253 79.0133 42.5305 78.9735L42.5262 64.2588C42.5262 63.4399 43.21 62.7778 44.0527 62.7778C44.8955 62.7778 45.5784 63.4399 45.5784 64.2588V76.3625L49.0218 73.9753C51.0147 72.5952 53.9971 73.0886 55.4092 75.0104C56.8773 77.0025 56.3996 79.7847 54.3455 81.2097L43.6606 88.6171C42.865 89.1681 41.9323 89.4444 40.9996 89.4444Z"
              fill="#E99531"/>
        <path id="Vector_3"
              d="M18.4021 75.6887C17.8214 75.6887 17.2397 75.5802 16.6861 75.3615L4.51302 70.5872C2.69915 69.8742 1.5525 68.122 1.65642 66.2282L2.36206 53.5006C2.49829 51.0549 4.66584 49.1705 7.18097 49.3027C8.65337 49.3773 10.007 50.1453 10.8 51.3584C11.3126 52.1392 11.5571 53.0454 11.5073 53.9753L11.2803 58.08L21.801 51.5856C22.5119 51.1465 23.456 51.3508 23.9075 52.04C24.3598 52.7309 24.1502 53.6472 23.4385 54.0855L10.5607 62.0354C10.593 62.0252 10.5502 62.0557 10.4908 62.0973C10.0122 62.433 9.38259 62.4737 8.86384 62.199C8.34772 61.9252 8.03944 61.3886 8.07088 60.8181L8.45863 53.8193C8.47522 53.5091 8.394 53.209 8.22458 52.9479C7.95822 52.5427 7.50847 52.2867 7.01854 52.2621C6.17056 52.2239 5.45619 52.8453 5.4099 53.6608L4.7034 66.385C4.66934 67.0174 5.05272 67.6015 5.6588 67.8406L17.8284 72.6149C18.2065 72.7616 18.6222 72.7573 18.9968 72.6047C19.3715 72.4504 19.6623 72.1639 19.8151 71.796C20.1313 71.0407 19.7514 70.1743 18.9689 69.8649L12.2785 67.2404C11.7353 67.0276 11.3659 66.5325 11.3274 65.9654C11.289 65.3991 11.5877 64.8591 12.0968 64.5785C12.1353 64.5582 12.2479 64.5031 12.289 64.4861L25.0777 56.5846C25.7886 56.1463 26.7317 56.3523 27.1841 57.0398C27.6365 57.7307 27.426 58.6471 26.7151 59.0853L16.1935 65.5814L20.1173 67.1208C22.4586 68.0483 23.5913 70.644 22.6455 72.9099C22.1879 74.0077 21.3155 74.8698 20.1898 75.3327C19.6143 75.57 19.0082 75.6887 18.4021 75.6887Z"
              fill="#E99531"/>
        <path id="Vector_4"
              d="M75.0686 40.7024C74.9865 40.7024 74.9036 40.7015 74.8206 40.6965C72.3081 40.5676 70.3658 38.4729 70.4933 36.0255L70.7204 31.9192L60.1996 38.4136C59.4879 38.8527 58.5456 38.6484 58.0932 37.9592C57.6409 37.2683 57.8513 36.3519 58.5622 35.9136L71.44 27.9638C71.4086 27.9799 71.4522 27.9434 71.5107 27.9019C71.9876 27.5679 72.6199 27.5255 73.1368 27.8002C73.653 28.074 73.9613 28.6106 73.9307 29.1811L73.5421 36.1798C73.4993 36.9945 74.1455 37.6947 74.9821 37.7371C75.8144 37.7863 76.5471 37.1539 76.5917 36.3384L77.2973 23.6141C77.3314 22.9817 76.9488 22.3968 76.3428 22.1586L64.1723 17.3834C63.7933 17.2351 63.3776 17.2401 63.0038 17.3936C62.6292 17.5487 62.3384 17.8352 62.1856 18.2023C62.0013 18.6457 62.0484 19.1501 62.3139 19.5553C62.4834 19.8155 62.7322 20.0156 63.0309 20.1326L69.7222 22.7588C70.2654 22.9716 70.6357 23.4658 70.6741 24.0329C70.7117 24.6 70.413 25.14 69.9039 25.4206C69.8654 25.441 69.7528 25.4961 69.7126 25.513L56.923 33.4137C56.2121 33.852 55.2681 33.6485 54.8166 32.9594C54.3642 32.2676 54.5747 31.3521 55.2855 30.9138L65.8072 24.4178L61.8843 22.8783C60.99 22.5274 60.2494 21.9263 59.7368 21.1439C58.9456 19.9342 58.8024 18.4193 59.3552 17.0918C59.8136 15.9923 60.6852 15.1293 61.8118 14.6665C62.9383 14.2036 64.1828 14.1909 65.3164 14.6377L77.4885 19.412C79.3024 20.1258 80.4491 21.8772 80.3451 23.7718L79.6395 36.4986C79.5059 38.8637 77.4807 40.7024 75.0686 40.7024Z"
              fill="#E99531"/>
        <path id="Vector_5"
              d="M64.7602 74.708C63.0188 74.708 61.3525 73.7416 60.5858 72.1063C59.9736 70.8042 60.0487 69.2843 60.7866 68.0407C61.2626 67.2379 61.9778 66.6072 62.852 66.2206L66.7042 64.5167L55.9013 58.4708C55.1712 58.0622 54.9215 57.1551 55.3415 56.4482C55.7625 55.7395 56.6969 55.4928 57.4261 55.9039L70.648 63.3036C70.6087 63.2748 70.6777 63.307 70.7388 63.3358C71.2646 63.5919 71.5929 64.1166 71.5825 64.6871C71.5711 65.2585 71.2244 65.7722 70.6891 66.0095L64.1183 68.9155C63.8266 69.0444 63.5891 69.2546 63.431 69.5208C63.1839 69.9362 63.1577 70.444 63.362 70.878C63.7105 71.6231 64.6196 71.9503 65.3863 71.613L77.3323 66.3274C77.9253 66.0655 78.2807 65.4653 78.2187 64.8355L76.9437 52.1502C76.9044 51.7569 76.7088 51.4025 76.3944 51.1508C76.08 50.9007 75.6826 50.7863 75.2766 50.821C74.4399 50.899 73.826 51.628 73.9046 52.4444L74.6059 59.416C74.6626 59.9865 74.3753 60.5384 73.867 60.8325C73.3605 61.1259 72.723 61.1089 72.2322 60.7859C72.2008 60.7656 72.1082 60.6994 72.0794 60.6774L58.9509 53.3353C58.22 52.9276 57.9702 52.0205 58.3911 51.3127C58.8112 50.6023 59.7439 50.3599 60.4757 50.7685L71.2777 56.8144L70.8672 52.7258C70.6297 50.2827 72.4759 48.1083 74.9814 47.8727C76.2014 47.7625 77.3882 48.11 78.3314 48.8619C79.2772 49.6156 79.8632 50.682 79.9819 51.8629L81.2561 64.5498C81.4456 66.4376 80.3776 68.2356 78.5986 69.024L66.65 74.3095C66.0378 74.58 65.3942 74.708 64.7602 74.708Z"
              fill="#E99531"/>
        <path id="Vector_6"
              d="M6.5653 42.148C5.51035 42.148 4.49469 41.797 3.66854 41.1375C2.72274 40.383 2.13675 39.3175 2.01798 38.1366L0.743826 25.4497C0.554318 23.5618 1.62238 21.7629 3.40131 20.9746L15.3499 15.6899C17.6476 14.6769 20.3688 15.6636 21.4151 17.8931C22.4604 20.1133 21.4456 22.7556 19.1514 23.7788L15.2958 25.4827L26.0986 31.5286C26.8287 31.9372 27.0785 32.8443 26.6584 33.5513C26.2366 34.26 25.3021 34.5016 24.5738 34.0955L11.3519 26.6958C11.3912 26.7246 11.3222 26.6924 11.2611 26.6636C10.7354 26.4076 10.407 25.8828 10.4175 25.3123C10.4288 24.741 10.7755 24.2273 11.3109 23.9907L17.8816 21.0839C18.6449 20.744 18.9864 19.8624 18.6371 19.1215C18.2886 18.378 17.3795 18.0499 16.6136 18.3873L4.66673 23.672C4.07463 23.9339 3.71832 24.5341 3.78119 25.164L5.05535 37.8492C5.09552 38.2426 5.29115 38.5969 5.60554 38.8487C5.91993 39.0987 6.30942 39.2073 6.72337 39.1784C7.2133 39.1327 7.6517 38.8571 7.89797 38.4435C8.05779 38.1747 8.12591 37.8696 8.09447 37.5584L7.39407 30.5834C7.33644 30.0129 7.62463 29.4611 8.13289 29.1669C8.64116 28.8761 9.2778 28.8922 9.76773 29.2135C9.79917 29.2339 9.89174 29.3 9.92056 29.322L23.049 36.6641C23.7791 37.0719 24.0297 37.9789 23.6088 38.6868C23.187 39.3954 22.2526 39.6387 21.5242 39.231L10.7223 33.1851L11.1327 37.2736C11.2253 38.2019 11.0209 39.1182 10.5424 39.9236C9.80528 41.1655 8.48746 41.9895 7.01855 42.1268C6.8666 42.1412 6.71639 42.148 6.5653 42.148Z"
              fill="#E99531"/>
        <path id="Vector_7"
              d="M40.9997 65.7407C29.2179 65.7407 19.6333 56.4362 19.6333 44.9996C19.6333 33.5631 29.2179 24.2585 40.9997 24.2585C52.7824 24.2585 62.3669 33.5631 62.3669 44.9996C62.3669 56.4362 52.7824 65.7407 40.9997 65.7407ZM40.9997 27.2222C30.9016 27.2222 22.6855 35.1966 22.6855 44.9996C22.6855 54.8035 30.9016 62.7779 40.9997 62.7779C51.0986 62.7779 59.3147 54.8035 59.3147 44.9996C59.3147 35.1966 51.0986 27.2222 40.9997 27.2222ZM40.9997 56.8515C34.2673 56.8515 28.7899 51.5347 28.7899 44.9996C28.7899 38.4646 34.2673 33.1477 40.9997 33.1477C47.7329 33.1477 53.2094 38.4646 53.2094 44.9996C53.2094 51.5347 47.7329 56.8515 40.9997 56.8515ZM40.9997 36.1105C35.9502 36.1105 31.843 40.0981 31.843 44.9996C31.843 49.9011 35.9502 53.8888 40.9997 53.8888C46.0492 53.8888 50.1572 49.9011 50.1572 44.9996C50.1572 40.0981 46.0492 36.1105 40.9997 36.1105Z"
              fill="#999999"/>
    </g>
</svg>
