<svg width="72" height="56" viewBox="0 0 72 56" fill="none" xmlns="http://www.w3.org/2000/svg">
<rect x="2" y="2" width="68" height="52" rx="6" stroke="#E99531" stroke-width="4"/>
<path d="M14 26.9V21.1C14 21.0448 14.0448 21 14.1 21H16.9C16.9552 21 17 21.0448 17 21.1V26.9C17 26.9552 16.9552 27 16.9 27H14.1C14.0448 27 14 26.9552 14 26.9Z" stroke="#E99531" stroke-width="4" stroke-linecap="round"/>
<path d="M25 26.9V13.1C25 13.0448 25.0448 13 25.1 13H27.9C27.9552 13 28 13.0448 28 13.1V26.9C28 26.9552 27.9552 27 27.9 27H25.1C25.0448 27 25 26.9552 25 26.9Z" stroke="#E99531" stroke-width="4" stroke-linecap="round"/>
<path d="M14 37H30" stroke="#E99531" stroke-width="4" stroke-linecap="round"/>
<path d="M14 44H26" stroke="#E99531" stroke-width="4" stroke-linecap="round"/>
<path fill-rule="evenodd" clip-rule="evenodd" d="M48 10.2C43.4355 11.1265 40 15.162 40 19.9999C40 25.5228 44.4772 29.9999 50 29.9999C53.1095 29.9999 55.8875 28.5807 57.7216 26.3547L49.0801 21.5536C48.4135 21.1832 48 20.4805 48 19.7179V10.2ZM59.5967 22.8205C59.8592 21.926 60 20.9794 60 19.9999C60 15.162 56.5645 11.1265 52 10.2V18.5999L59.5967 22.8205Z" fill="#E99531"/>
<path d="M42 37H58" stroke="#E99531" stroke-width="4" stroke-linecap="round"/>
<path d="M42 44H50" stroke="#E99531" stroke-width="4" stroke-linecap="round"/>
</svg>
