<svg width="66" height="80" viewBox="0 0 66 80" fill="none" xmlns="http://www.w3.org/2000/svg">
    <path d="M16.4986 68.2268C17.4547 68.7799 18.6782 68.4532 19.2313 67.497C19.7844 66.5409 19.4576 65.3175 18.5015 64.7644L16.4986 68.2268ZM4.00006 39.6428C4.00006 23.6266 16.9838 10.6428 33.0001 10.6428L33.0001 6.64284C14.7747 6.64284 6.10433e-05 21.4174 6.1055e-05 39.6428L4.00006 39.6428ZM18.5015 64.7644C9.82817 59.7471 4.00006 50.3744 4.00006 39.6428L6.1055e-05 39.6428C6.10629e-05 51.86 6.6401 62.524 16.4986 68.2268L18.5015 64.7644Z"
          fill="#E99531"/>
    <path d="M33.0001 70.6428C50.1209 70.6428 64.0001 56.7637 64.0001 39.6428C64.0001 28.1685 57.766 18.1501 48.5001 12.7901"
          stroke="#E99531" stroke-width="4" stroke-linecap="round"/>
    <path d="M32.262 8.64284L38.1667 8.64284" stroke="#E99531" stroke-width="4"/>
    <path d="M27.8334 70.6428L33.7381 70.6428" stroke="#E99531" stroke-width="4"/>
    <path d="M30.7858 1.99998L39.2762 8.2045C39.8228 8.60397 39.8228 9.41981 39.2762 9.81928L30.7858 16.0238"
          stroke="#E99531" stroke-width="4" stroke-linecap="round"/>
    <path d="M35.2144 63.2619L26.724 69.4664C26.1773 69.8659 26.1773 70.6817 26.724 71.0812L35.2144 77.2857"
          stroke="#E99531" stroke-width="4" stroke-linecap="round"/>
    <circle cx="29.8476" cy="39.6428" r="15.5141" stroke="#E99531" stroke-width="4"/>
    <path fill-rule="evenodd" clip-rule="evenodd"
          d="M37.157 26.1655C35.3487 25.3716 33.3501 24.931 31.2487 24.931C31.0138 24.931 30.7803 24.9365 30.5481 24.9474L30.5481 22.1287L34.5481 22.1287L36.1526 22.1287C45.8254 22.1287 53.6667 29.9701 53.6667 39.6428C53.6667 49.3156 45.8254 57.157 36.1526 57.157L34.5481 57.157L30.5481 57.157L30.5481 54.3383C30.7803 54.3492 31.0138 54.3547 31.2487 54.3547C33.3502 54.3547 35.3487 53.9141 37.1571 53.1202C44.1516 52.6063 49.6667 46.7686 49.6667 39.6428C49.6667 32.517 44.1516 26.6794 37.157 26.1655Z"
          fill="#E99531"/>
</svg>
