<svg width="32" height="32" viewBox="0 0 32 32" fill="none" xmlns="http://www.w3.org/2000/svg">
    <g id="swords">
        <mask id="mask0_187_5356" style="mask-type:alpha" maskUnits="userSpaceOnUse" x="0" y="0" width="32" height="32">
            <rect id="Bounding box" width="32" height="32" fill="#D9D9D9"/>
        </mask>
        <g mask="url(#mask0_187_5356)">
            <path id="swords_2"
                  d="M25.3993 28.8001L21.4993 24.9334L18.566 27.8667L17.6327 26.9334C17.1216 26.4223 16.866 25.7889 16.866 25.0334C16.866 24.2778 17.1216 23.6445 17.6327 23.1334L23.266 17.5001C23.7771 16.9889 24.4105 16.7334 25.166 16.7334C25.9216 16.7334 26.5549 16.9889 27.066 17.5001L27.9993 18.4334L25.066 21.3667L28.9327 25.2667C29.1993 25.5334 29.3327 25.8445 29.3327 26.2001C29.3327 26.5556 29.1993 26.8667 28.9327 27.1334L27.266 28.8001C26.9993 29.0667 26.6882 29.2001 26.3327 29.2001C25.9771 29.2001 25.666 29.0667 25.3993 28.8001ZM29.3327 7.86672L14.1993 23.0001L14.366 23.1334C14.8771 23.6445 15.1327 24.2778 15.1327 25.0334C15.1327 25.7889 14.8771 26.4223 14.366 26.9334L13.4327 27.8667L10.4993 24.9334L6.59935 28.8001C6.33268 29.0667 6.02157 29.2001 5.66602 29.2001C5.31046 29.2001 4.99935 29.0667 4.73268 28.8001L3.06602 27.1334C2.79935 26.8667 2.66602 26.5556 2.66602 26.2001C2.66602 25.8445 2.79935 25.5334 3.06602 25.2667L6.93268 21.3667L3.99935 18.4334L4.93268 17.5001C5.44379 16.9889 6.07713 16.7334 6.83268 16.7334C7.58824 16.7334 8.22157 16.9889 8.73268 17.5001L8.86602 17.6667L23.9993 2.53339H29.3327V7.86672ZM9.26602 14.4667L2.66602 7.86672V2.53339H7.99935L14.5993 9.13339L12.6993 11.0001L6.89935 5.20005H5.33268V6.76672L11.1327 12.5667L9.26602 14.4667ZM12.3327 21.1001L26.666 6.76672V5.20005H25.0993L10.766 19.5334L12.3327 21.1001Z"
                  fill="#999999"/>
        </g>
    </g>
</svg>
