<svg width="462" height="912" viewBox="0 0 462 912" fill="none" xmlns="http://www.w3.org/2000/svg">
<path fill-rule="evenodd" clip-rule="evenodd" d="M375.853 270.372L230.707 -0.00100196L85.4589 270.562L230.605 540.935L375.853 270.372ZM337.569 270.146L230.52 70.7392L123.396 270.286L230.445 469.693L337.569 270.146Z" fill="#6A6A6A"/>
<path d="M231.001 903.464L234.873 910.679L350.753 694.748L389.577 767.09L461.813 487.801L462 487.453L234.873 64.2244L231 71.4402L231.001 903.464Z" fill="#222222"/>
<path d="M231.001 904.309L227.128 911.525L111.248 695.594L72.4244 767.936L0.188098 488.647L0.000413078 488.299L227.128 65.0703L231 72.2862L231.001 904.309Z" fill="white"/>
<rect width="306.87" height="307.085" transform="matrix(0.47299 0.881068 -0.47299 0.881068 231.374 278.15)" fill="#484848"/>
<rect width="226.324" height="226.483" transform="matrix(0.47299 0.881068 -0.472989 0.881068 231.141 348.91)" fill="#FFA928"/>
</svg>
