<svg width="39" height="40" viewBox="0 0 39 40" fill="none" xmlns="http://www.w3.org/2000/svg">
<g clip-path="url(#clip0_267_5640)">
<path fill-rule="evenodd" clip-rule="evenodd" d="M25.4846 11.8585L19.1186 0L12.748 11.8668L19.1141 23.7253L25.4846 11.8585ZM23.8055 11.8486L19.1104 3.10264L14.412 11.8547L19.1071 20.6006L23.8055 11.8486Z" fill="#6A6A6A"/>
<path d="M19.1309 39.6256L19.3007 39.9421L24.3832 30.4714L26.086 33.6443L29.2542 21.3948L29.2624 21.3796L19.3007 2.81689L19.1309 3.13338L19.1309 39.6256Z" fill="#222222"/>
<path d="M19.1316 39.6627L18.9617 39.9792L13.8793 30.5086L12.1765 33.6814L9.00823 21.4319L9 21.4167L18.9617 2.854L19.1316 3.17049L19.1316 39.6627Z" fill="white"/>
<path d="M25.5145 24.0581L19.1484 12.1996L12.7779 24.0664L19.144 35.9249L25.5145 24.0581Z" fill="#484848"/>
<path d="M23.8338 24.049L19.1387 15.3031L14.4403 24.0552L19.1354 32.8011L23.8338 24.049Z" fill="#FFA928"/>
</g>
<defs>
<clipPath id="clip0_267_5640">
<rect width="20.2632" height="40" fill="white" transform="translate(9)"/>
</clipPath>
</defs>
</svg>
