<svg width="39" height="40" viewBox="0 0 39 40" fill="none" xmlns="http://www.w3.org/2000/svg">
<mask id="mask0_1_3" style="mask-type:luminance" maskUnits="userSpaceOnUse" x="0" y="0" width="39" height="40">
<path d="M38.7302 0H0V40H38.7302V0Z" fill="white"/>
</mask>
<g mask="url(#mask0_1_3)">
<path fill-rule="evenodd" clip-rule="evenodd" d="M38.6961 0.7953C38.8451 0.250595 38.2149 -0.183523 37.729 0.129418L20.2394 11.3718C20.1532 11.4262 20.0821 11.5015 20.0327 11.5907C19.9832 11.68 19.957 11.7803 19.9565 11.8824V38.4C19.9565 38.9082 20.5621 39.1953 20.9799 38.8847L23.9493 36.6788C24.0762 36.5854 24.1621 36.4462 24.1887 36.2906L27.1686 18.5024C27.1835 18.4165 27.2165 18.3348 27.2655 18.2628C27.3145 18.1907 27.3783 18.13 27.4526 18.0847L35.0848 13.3659C35.217 13.2845 35.3134 13.1558 35.3547 13.0059L38.6961 0.7953ZM34.417 16.4C34.5578 15.8659 33.9498 15.4377 33.464 15.7294L28.3574 18.8059C28.2817 18.851 28.2165 18.9119 28.1665 18.9846C28.1164 19.0573 28.0827 19.14 28.0676 19.2271L26.8974 26.1035C26.8094 26.6235 27.3974 27.0012 27.861 26.7212L32.2129 24.0988C32.3502 24.0172 32.4504 23.8851 32.4922 23.7306L34.417 16.4012V16.4ZM0.0457044 0.7953C-0.103348 0.250595 0.526897 -0.182347 1.01278 0.129418L18.5036 11.3718C18.6796 11.4859 18.7852 11.6777 18.7852 11.8824V38.4C18.7852 38.9082 18.1808 39.1953 17.763 38.8847L14.7925 36.6788C14.6654 36.5855 14.5796 36.4463 14.5531 36.2906L11.5732 18.5024C11.5583 18.4165 11.5252 18.3348 11.4762 18.2628C11.4273 18.1907 11.3635 18.13 11.2892 18.0847L3.657 13.3659C3.52479 13.2845 3.42832 13.1558 3.38706 13.0059L0.0457044 0.7953ZM4.3248 16.4C4.18396 15.8659 4.79191 15.4377 5.2778 15.7294L10.3843 18.8059C10.4603 18.8508 10.5257 18.9118 10.5759 18.9845C10.6262 19.0572 10.6601 19.1399 10.6754 19.2271L11.8443 26.1035C11.9323 26.6235 11.3443 27.0012 10.8808 26.7212L6.5289 24.0988C6.39199 24.017 6.29224 23.8849 6.25074 23.7306L4.3248 16.4012V16.4Z" fill="#E99531"/>
</g>
</svg>
