<svg width="64" height="64" viewBox="0 0 64 64" fill="none" xmlns="http://www.w3.org/2000/svg">
    <g id="036-file" clip-path="url(#clip0_230_4437)">
        <path id="Vector"
              d="M49.8953 64.0002H7.22852C6.60853 64.0002 6.10547 63.4978 6.10547 62.8771V7.8594C6.10547 7.56322 6.2224 7.27989 6.43056 7.06916L13.1046 0.33216C13.316 0.1195 13.6025 0 13.9019 0H49.8953C50.5159 0 51.0177 0.502416 51.0177 1.12305V35.2109C51.0177 35.8315 50.5159 36.3333 49.8953 36.3333C49.2747 36.3333 48.7723 35.8315 48.7723 35.2109V2.24545H14.3703L8.35156 8.32134V61.7541H48.7723V53.8947C48.7723 53.274 49.2747 52.7716 49.8953 52.7716C50.5159 52.7716 51.0177 53.274 51.0177 53.8947V62.8771C51.0177 63.4978 50.5159 64.0002 49.8953 64.0002Z"
              fill="#E99531"/>
        <path id="Vector_2"
              d="M39.7891 11.2279H15.0872C14.4673 11.2279 13.9648 10.7261 13.9648 10.1055C13.9648 9.48486 14.4673 8.98244 15.0872 8.98244H39.7891C40.4098 8.98244 40.9122 9.48486 40.9122 10.1055C40.9122 10.7261 40.4098 11.2279 39.7891 11.2279Z"
              fill="#E99531"/>
        <path id="Vector_3"
              d="M39.7891 22.4564H15.0872C14.4673 22.4564 13.9648 21.954 13.9648 21.3334C13.9648 20.7128 14.4673 20.2103 15.0872 20.2103H39.7891C40.4098 20.2103 40.9122 20.7128 40.9122 21.3334C40.9122 21.954 40.4098 22.4564 39.7891 22.4564Z"
              fill="#E99531"/>
        <path id="Vector_4"
              d="M25.1927 16.8418H15.0872C14.4673 16.8418 13.9648 16.3401 13.9648 15.7194C13.9648 15.0988 14.4673 14.5964 15.0872 14.5964H25.1927C25.8134 14.5964 26.3158 15.0988 26.3158 15.7194C26.3158 16.3401 25.8134 16.8418 25.1927 16.8418Z"
              fill="#E99531"/>
        <path id="Vector_5"
              d="M25.1927 28.0704H15.0872C14.4673 28.0704 13.9648 27.568 13.9648 26.9473C13.9648 26.3267 14.4673 25.8243 15.0872 25.8243H25.1927C25.8134 25.8243 26.3158 26.3267 26.3158 26.9473C26.3158 27.568 25.8134 28.0704 25.1927 28.0704Z"
              fill="#E99531"/>
        <path id="Vector_6"
              d="M39.7884 16.8418H29.6836C29.063 16.8418 28.5605 16.3401 28.5605 15.7194C28.5605 15.0988 29.063 14.5964 29.6836 14.5964H39.7884C40.4091 14.5964 40.9115 15.0988 40.9115 15.7194C40.9115 16.3401 40.4091 16.8418 39.7884 16.8418Z"
              fill="#E99531"/>
        <path id="Vector_7"
              d="M56.6323 55.0177H7.22852C6.60853 55.0177 6.10547 54.5153 6.10547 53.8947V35.9298C6.10547 35.3092 6.60853 34.8067 7.22852 34.8067H56.6323C57.2529 34.8067 57.7547 35.3092 57.7547 35.9298V53.8947C57.7547 54.5153 57.2529 55.0177 56.6323 55.0177ZM8.35156 52.7716H55.5092V37.0528H8.35156V52.7716Z"
              fill="#E99531"/>
        <path id="Vector_8"
              d="M15.0223 40.2434C15.5048 40.2434 15.9205 40.298 16.2687 40.4078C16.6175 40.5177 16.9118 40.6597 17.1508 40.8351C17.3898 41.0111 17.5813 41.209 17.7265 41.4307C17.871 41.6523 17.9815 41.8772 18.0586 42.1053C18.1357 42.3327 18.1858 42.5524 18.2102 42.7632C18.234 42.9732 18.2462 43.1551 18.2462 43.3086C18.2462 43.3748 18.2411 43.4551 18.2295 43.5489C18.2186 43.6427 18.18 43.7339 18.1145 43.822C18.049 43.91 17.9449 43.9845 17.8023 44.0455C17.6596 44.1072 17.4566 44.1381 17.1938 44.1381C17.1058 44.1381 16.996 44.1323 16.8649 44.1214C16.7332 44.1104 16.606 44.0815 16.4833 44.0359C16.3606 43.9896 16.2552 43.9241 16.1672 43.838C16.0798 43.7526 16.0355 43.6337 16.0355 43.4802C16.0355 43.2431 16.0213 43.0304 15.9931 42.8415C15.9648 42.6533 15.9128 42.4933 15.8382 42.3616C15.7637 42.2299 15.6609 42.129 15.5292 42.059C15.3975 41.989 15.2285 41.9536 15.0223 41.9536C14.8071 41.9536 14.6419 41.9986 14.5256 42.0886C14.4087 42.1785 14.3246 42.2762 14.2725 42.3809C14.2108 42.5081 14.1755 42.6507 14.1671 42.8088V46.9797C14.1755 47.1725 14.2108 47.3414 14.2725 47.4866C14.3252 47.6132 14.4094 47.7295 14.5256 47.8349C14.6419 47.9402 14.8071 47.9929 15.0223 47.9929C15.2285 47.9929 15.3975 47.9499 15.5292 47.8644C15.6609 47.779 15.7637 47.664 15.8382 47.5194C15.9128 47.3748 15.9641 47.2078 15.9931 47.0189C16.022 46.8307 16.0355 46.6334 16.0355 46.4272C16.0355 46.3617 16.0464 46.2936 16.0682 46.2229C16.0907 46.1529 16.1408 46.0886 16.2199 46.0295C16.2989 45.9698 16.4152 45.9203 16.5687 45.8811C16.7223 45.8419 16.9304 45.822 17.1938 45.822C17.4566 45.822 17.6596 45.8515 17.8023 45.9106C17.9449 45.9698 18.049 46.0379 18.1145 46.115C18.18 46.1914 18.2186 46.2659 18.2295 46.3385C18.2404 46.4111 18.2462 46.458 18.2462 46.4799C18.2462 46.9624 18.1653 47.3935 18.0027 47.7725C17.8408 48.1516 17.6115 48.4735 17.3153 48.7363C17.0197 48.9997 16.6664 49.2001 16.2565 49.3389C15.8459 49.477 15.3956 49.5458 14.9047 49.5458C14.8257 49.5458 14.6972 49.5393 14.5199 49.5265C14.3419 49.513 14.1434 49.4777 13.9243 49.4211C13.7052 49.3639 13.4791 49.2785 13.2465 49.1641C13.0145 49.0504 12.8025 48.8911 12.6117 48.6874C12.4209 48.4838 12.2641 48.2293 12.1414 47.9242C12.0181 47.6196 11.957 47.2476 11.957 46.8088V43.1384C11.957 42.7786 12.0007 42.4606 12.0887 42.1843C12.1768 41.908 12.2918 41.6677 12.4337 41.4641C12.5764 41.2604 12.7402 41.0889 12.924 40.9507C13.1083 40.8126 13.2966 40.6976 13.49 40.6057C13.9365 40.3944 14.4479 40.2742 15.0223 40.2434Z"
              fill="#E99531"/>
        <path id="Vector_9"
              d="M19.6016 41.7962C19.6016 41.6073 19.6073 41.423 19.6183 41.2431C19.6292 41.0632 19.6652 40.9032 19.7268 40.7631C19.7885 40.6224 19.8855 40.51 20.0198 40.4239C20.1534 40.3385 20.343 40.2961 20.5884 40.2961H22.7593C23.299 40.3224 23.7815 40.4361 24.2068 40.6378C24.3867 40.7259 24.5634 40.8344 24.7362 40.9636C24.9097 41.0934 25.0645 41.2533 25.2001 41.4442C25.3363 41.635 25.4455 41.8592 25.529 42.1181C25.6126 42.377 25.6543 42.6771 25.6543 43.0195C25.6543 43.0895 25.6473 43.1827 25.6344 43.299C25.6209 43.4153 25.5926 43.5425 25.549 43.6806C25.5046 43.8187 25.4455 43.9627 25.371 44.1117C25.2965 44.2608 25.1982 44.4034 25.0748 44.539C24.9521 44.6745 24.8018 44.7998 24.6244 44.9142C24.4471 45.0279 24.237 45.1198 23.9961 45.1904C24.1496 45.2515 24.3058 45.3318 24.4632 45.4301C24.6212 45.529 24.7639 45.6549 24.8911 45.8085C25.0183 45.962 25.1224 46.1464 25.2033 46.361C25.2843 46.5762 25.3247 46.8262 25.3247 47.1114V48.0456C25.3247 48.0983 25.3382 48.142 25.3646 48.1773C25.3909 48.212 25.4172 48.2428 25.4436 48.2692C25.549 48.3745 25.61 48.4651 25.6273 48.5422C25.6453 48.6193 25.6543 48.6816 25.6543 48.7298C25.6543 48.8834 25.6235 49.0125 25.5618 49.1179C25.5008 49.2232 25.4205 49.3087 25.3222 49.3749C25.2232 49.4404 25.1114 49.4873 24.9868 49.5162C24.8615 49.5445 24.733 49.5586 24.6019 49.5586C24.4567 49.5586 24.3103 49.5355 24.1612 49.4899C24.0122 49.4436 23.876 49.3768 23.7532 49.2888C23.6305 49.2014 23.5303 49.0915 23.4538 48.9598C23.3774 48.8281 23.3388 48.6771 23.3388 48.5062V47.1114C23.3388 46.918 23.3253 46.7407 23.299 46.5788C23.2727 46.4163 23.2226 46.2762 23.148 46.1574C23.0735 46.0391 22.9701 45.9473 22.8384 45.8811C22.7066 45.8156 22.5357 45.7821 22.3257 45.7821H21.5887V47.9801C21.5887 48.1728 21.583 48.361 21.572 48.5454C21.5611 48.7298 21.5251 48.893 21.4635 49.0356C21.4018 49.1783 21.3035 49.2926 21.1673 49.3781C21.0311 49.4635 20.8383 49.5059 20.5884 49.5059C20.343 49.5059 20.1528 49.4635 20.0198 49.3781C19.8862 49.2926 19.7885 49.1783 19.7268 49.0356C19.6652 48.893 19.6292 48.7298 19.6183 48.5454C19.6073 48.3617 19.6016 48.1728 19.6016 47.9801V41.7962ZM22.4831 44.3096C22.7021 44.3006 22.9 44.2479 23.0754 44.1515C23.15 44.1117 23.2219 44.0616 23.2919 44.0006C23.3626 43.9389 23.4262 43.8624 23.4834 43.7699C23.5399 43.678 23.5849 43.5707 23.6177 43.448C23.6504 43.3253 23.6671 43.1827 23.6671 43.0201C23.6671 42.8756 23.6504 42.7471 23.6177 42.6353C23.5849 42.5235 23.5419 42.4259 23.4898 42.343C23.4371 42.2595 23.3767 42.1894 23.3086 42.1322C23.2405 42.0751 23.1718 42.0294 23.1011 41.9941C22.9347 41.9106 22.7458 41.8624 22.5357 41.8496H21.5881V44.3096H22.4831Z"
              fill="#E99531"/>
        <path id="Vector_10"
              d="M30.4824 48.0199C30.4824 48.2036 30.4741 48.3848 30.4561 48.5628C30.4387 48.7401 30.397 48.8988 30.3314 49.0395C30.2653 49.1796 30.167 49.2926 30.0353 49.3781C29.9036 49.4642 29.7237 49.5066 29.4956 49.5066C29.263 49.5066 29.0812 49.4642 28.9495 49.3781C28.8184 49.2926 28.7182 49.1796 28.6501 49.0395C28.5826 48.8988 28.5396 48.7401 28.5222 48.5628C28.5049 48.3848 28.4959 48.2043 28.4959 48.0199V45.7301L26.5351 42.2299C26.4297 42.0462 26.3295 41.865 26.2324 41.687C26.1361 41.5097 26.0879 41.3311 26.0879 41.1512C26.0879 41.033 26.1219 40.9128 26.1894 40.7927C26.2575 40.6725 26.3815 40.5595 26.5614 40.4541C26.7586 40.3487 26.943 40.2961 27.1139 40.2961C27.2456 40.2961 27.3651 40.3256 27.4724 40.3847C27.5797 40.4438 27.6774 40.5216 27.7654 40.6186C27.8534 40.7149 27.9318 40.8235 28.0025 40.9443C28.0725 41.0645 28.1361 41.1865 28.1933 41.3092L29.3909 43.8226H29.6009L30.7985 41.3092C30.8557 41.1865 30.9193 41.0645 30.9893 40.9443C31.0594 40.8235 31.1384 40.7149 31.2264 40.6186C31.3144 40.5216 31.4114 40.4438 31.5194 40.3847C31.6267 40.3256 31.7462 40.2961 31.8779 40.2961C31.9698 40.2961 32.0597 40.3095 32.1471 40.3359C32.2351 40.3622 32.3289 40.4014 32.4304 40.4541C32.6013 40.5595 32.7227 40.6725 32.7953 40.7927C32.8679 40.9135 32.9039 41.033 32.9039 41.1512C32.9039 41.2302 32.8692 41.3587 32.7985 41.536C32.7285 41.714 32.6148 41.9453 32.4567 42.2305L30.4831 45.7307V48.0199H30.4824Z"
              fill="#E99531"/>
        <path id="Vector_11"
              d="M35.6934 45.8753V48.007C35.6934 48.1953 35.6876 48.3797 35.6767 48.5596C35.6658 48.7395 35.6285 48.8994 35.5649 49.0395C35.5019 49.1802 35.4017 49.2926 35.2661 49.3787C35.1299 49.4642 34.9346 49.5066 34.6802 49.5066C34.4348 49.5066 34.2452 49.4642 34.1116 49.3787C33.978 49.2926 33.8803 49.1802 33.8186 49.0395C33.757 48.8994 33.721 48.7395 33.7101 48.5596C33.6991 48.3797 33.6934 48.1953 33.6934 48.007V41.7962C33.6934 41.6073 33.6991 41.4236 33.7101 41.2437C33.721 41.0638 33.757 40.9038 33.8186 40.7631C33.8803 40.6231 33.9773 40.51 34.1116 40.4245C34.2452 40.3391 34.4348 40.2961 34.6802 40.2961H36.8511C37.3953 40.3224 37.8823 40.4368 38.3115 40.6385C38.4959 40.7259 38.6745 40.8357 38.8479 40.9674C39.0208 41.0991 39.1769 41.2598 39.315 41.4512C39.4532 41.642 39.5637 41.8675 39.6472 42.1284C39.7307 42.3899 39.7725 42.6912 39.7725 43.033C39.7725 43.5026 39.6986 43.9138 39.5521 44.2672C39.405 44.6199 39.1923 44.9161 38.9141 45.1551C38.6353 45.3941 38.2954 45.574 37.8939 45.6948C37.493 45.8156 37.04 45.8759 36.5357 45.8759H35.6934V45.8753ZM36.5884 44.3096C36.8074 44.2961 37.0047 44.2434 37.1801 44.1515C37.2546 44.1117 37.3272 44.0616 37.3972 44.0006C37.4673 43.9389 37.5309 43.8631 37.588 43.7731C37.6452 43.6832 37.6902 43.5772 37.723 43.4538C37.7557 43.3311 37.7724 43.191 37.7724 43.033C37.7724 42.8839 37.7557 42.7535 37.723 42.6411C37.6902 42.5293 37.6472 42.4329 37.5945 42.352C37.5418 42.271 37.4827 42.2016 37.4171 42.1451C37.351 42.0879 37.2829 42.0397 37.2128 41.9999C37.0458 41.9164 36.8595 41.8663 36.6539 41.8489H35.6934V44.3096H36.5884Z"
              fill="#E99531"/>
        <path id="Vector_12"
              d="M44.7844 40.2961C44.9598 40.2961 45.1365 40.3025 45.3138 40.316C45.4918 40.3288 45.653 40.3661 45.7976 40.4278C45.9421 40.4888 46.0597 40.582 46.1496 40.7072C46.2396 40.8319 46.2846 41.0066 46.2846 41.2302C46.2846 41.4493 46.2396 41.6215 46.1496 41.7468C46.0597 41.8714 45.9421 41.9646 45.7976 42.0262C45.653 42.0873 45.4918 42.1258 45.3138 42.1412C45.1365 42.1567 44.9598 42.1644 44.7844 42.1644H44.113V48.0064C44.113 48.1946 44.1072 48.379 44.0963 48.5589C44.0854 48.7388 44.0494 48.8988 43.9877 49.0389C43.9267 49.1796 43.8277 49.2926 43.6915 49.3781C43.5553 49.4635 43.3626 49.5059 43.1127 49.5059C42.8634 49.5059 42.67 49.4635 42.5344 49.3781C42.3982 49.2926 42.2993 49.1796 42.2383 49.0389C42.1766 48.8988 42.1406 48.7388 42.1297 48.5589C42.1181 48.379 42.113 48.1946 42.113 48.0064V42.1644H41.4416C41.2662 42.1644 41.0895 42.1567 40.9122 42.1412C40.7342 42.1258 40.573 42.0873 40.4284 42.0262C40.2832 41.9646 40.1663 41.8714 40.0763 41.7468C39.9864 41.6215 39.9414 41.4493 39.9414 41.2302C39.9414 41.0066 39.9864 40.8319 40.0763 40.7072C40.1663 40.582 40.2832 40.4888 40.4284 40.4278C40.573 40.3661 40.7342 40.3288 40.9122 40.316C41.0895 40.3031 41.2662 40.2961 41.4416 40.2961H44.7844Z"
              fill="#E99531"/>
        <path id="Vector_13"
              d="M47.0215 42.9013C47.0215 42.4805 47.0832 42.122 47.2059 41.8258C47.3286 41.5296 47.4854 41.2829 47.6762 41.0857C47.867 40.8884 48.0777 40.7336 48.3077 40.6218C48.5384 40.51 48.7619 40.4258 48.9791 40.3687C49.1963 40.3115 49.3929 40.2768 49.5683 40.2633C49.7437 40.2498 49.8728 40.2434 49.9563 40.2434H50.1799C50.2634 40.2434 50.3926 40.2498 50.5679 40.2633C50.7433 40.2768 50.9387 40.3115 51.1539 40.3687C51.3685 40.4258 51.5914 40.51 51.8214 40.6218C52.0514 40.7336 52.2602 40.8884 52.4465 41.0857C52.6335 41.2829 52.7864 41.5296 52.9072 41.8258C53.028 42.122 53.0884 42.4805 53.0884 42.9013V46.8358C53.0884 47.2701 53.028 47.6383 52.9072 47.9409C52.7864 48.2441 52.6329 48.496 52.4465 48.6977C52.2602 48.8988 52.0521 49.0581 51.8214 49.1744C51.5908 49.2907 51.3685 49.3774 51.1539 49.4346C50.9387 49.4912 50.7433 49.5265 50.5679 49.5393C50.3926 49.5528 50.2634 49.5593 50.1799 49.5593H49.9563C49.8728 49.5593 49.7437 49.5528 49.5683 49.5393C49.3929 49.5265 49.1963 49.4912 48.9791 49.4346C48.7619 49.3774 48.5384 49.2907 48.3077 49.1744C48.0777 49.0581 47.867 48.8994 47.6762 48.6977C47.4854 48.496 47.3286 48.2435 47.2059 47.9409C47.0832 47.6383 47.0215 47.2701 47.0215 46.8358V42.9013ZM49.2059 47.0857C49.2149 47.2476 49.2522 47.3903 49.3177 47.513C49.3749 47.6228 49.4616 47.7211 49.5779 47.8092C49.6935 47.8972 49.8593 47.9409 50.0745 47.9409C50.2853 47.9409 50.4472 47.8972 50.5609 47.8092C50.6752 47.7211 50.7607 47.6228 50.8179 47.513C50.8789 47.3903 50.9168 47.2476 50.9297 47.0857V42.7959C50.9162 42.6385 50.8789 42.4959 50.8179 42.3687C50.7607 42.2633 50.6752 42.1657 50.5609 42.0757C50.4472 41.9858 50.2853 41.9408 50.0745 41.9408C49.8593 41.9408 49.6942 41.9858 49.5779 42.0757C49.461 42.1657 49.3749 42.2633 49.3177 42.3687C49.2522 42.4959 49.2149 42.6385 49.2059 42.7959V47.0857Z"
              fill="#E99531"/>
    </g>
    <defs>
        <clipPath id="clip0_230_4437">
            <rect width="64" height="64" fill="white"/>
        </clipPath>
    </defs>
</svg>
