<svg width="64" height="64" viewBox="0 0 64 64" fill="none" xmlns="http://www.w3.org/2000/svg">
    <g id="058-profits" clip-path="url(#clip0_230_4424)">
        <path id="Vector"
              d="M57.9126 59.7789H6.08765C2.73132 59.7789 0 57.0482 0 53.6919V18.9336C0 15.5773 2.73132 12.8459 6.08765 12.8459C6.67725 12.8459 7.15393 13.3226 7.15393 13.9122C7.15393 14.5018 6.67725 14.9791 6.08765 14.9791C3.90747 14.9791 2.13318 16.7528 2.13318 18.9336V53.6919C2.13318 55.8721 3.90747 57.6458 6.08765 57.6458H57.9126C60.0928 57.6458 61.8665 55.8721 61.8665 53.6919V23.2C61.8665 21.0198 60.0928 19.2461 57.9126 19.2461H32.5336C32.3084 19.2461 32.0886 19.1741 31.9061 19.0416L26.3196 14.9791H23.9362C23.3466 14.9791 22.8699 14.5018 22.8699 13.9122C22.8699 13.3226 23.3466 12.8459 23.9362 12.8459H26.6669C26.8915 12.8459 27.1112 12.918 27.2937 13.0498L32.8803 17.1123H57.9126C61.2689 17.1123 64.0003 19.8436 64.0003 23.2V53.6919C64.0003 57.0482 61.2689 59.7789 57.9126 59.7789Z"
              fill="#E99531"/>
        <path id="Vector_2"
              d="M36.2653 44.2284C36.1078 44.2284 35.9485 44.1936 35.7983 44.1198C35.2679 43.8616 35.0494 43.2231 35.3076 42.694L44.3835 24.1112C44.563 23.745 44.9347 23.5125 45.3418 23.5125H51.1993C51.7889 23.5125 52.2662 23.9897 52.2662 24.5793C52.2662 25.1689 51.7889 25.6456 51.1993 25.6456H46.0077L37.2241 43.629C37.0398 44.0081 36.6602 44.2284 36.2653 44.2284Z"
              fill="#E99531"/>
        <path id="Vector_3"
              d="M31.9701 46.0283C31.8841 46.0283 31.7968 46.0179 31.7089 45.996L22.7831 43.7468C22.2112 43.6034 21.8652 43.0229 22.0092 42.4523C22.1526 41.8791 22.7319 41.5337 23.3038 41.6783L32.2302 43.9275C32.8021 44.0709 33.1475 44.6514 33.0035 45.222C32.882 45.7067 32.4474 46.0283 31.9701 46.0283Z"
              fill="#E99531"/>
        <path id="Vector_4"
              d="M14.5656 50.1793C14.3264 50.1793 14.0853 50.0988 13.8863 49.9346C13.4322 49.5586 13.37 48.8854 13.7447 48.4325L17.3116 44.1271C17.6888 43.6736 18.3608 43.6101 18.8137 43.9855C19.2678 44.3615 19.3306 45.0347 18.9553 45.4876L15.389 49.793C15.1772 50.0481 14.8733 50.1793 14.5656 50.1793Z"
              fill="#E99531"/>
        <path id="Vector_5"
              d="M34.1337 48.0455C32.3691 48.0455 30.9336 46.6106 30.9336 44.8461C30.9336 43.0815 32.3691 41.646 34.1337 41.646C35.8982 41.646 37.3337 43.0815 37.3337 44.8461C37.3337 46.6106 35.8982 48.0455 34.1337 48.0455ZM34.1337 43.7792C33.5453 43.7792 33.0668 44.2571 33.0668 44.8461C33.0668 45.4344 33.5453 45.9124 34.1337 45.9124C34.722 45.9124 35.2006 45.4344 35.2006 44.8461C35.2006 44.2571 34.722 43.7792 34.1337 43.7792Z"
              fill="#E99531"/>
        <path id="Vector_6"
              d="M53.3329 27.7794C51.5684 27.7794 50.1328 26.3439 50.1328 24.5793C50.1328 22.8148 51.5684 21.3793 53.3329 21.3793C55.0974 21.3793 56.533 22.8148 56.533 24.5793C56.533 26.3439 55.0974 27.7794 53.3329 27.7794ZM53.3329 23.5125C52.7445 23.5125 52.2666 23.9904 52.2666 24.5793C52.2666 25.1677 52.7445 25.6456 53.3329 25.6456C53.9219 25.6456 54.3998 25.1677 54.3998 24.5793C54.3998 23.9904 53.9219 23.5125 53.3329 23.5125Z"
              fill="#E99531"/>
        <path id="Vector_7"
              d="M20.2665 45.9124C18.502 45.9124 17.0664 44.4768 17.0664 42.7123C17.0664 40.9478 18.502 39.5122 20.2665 39.5122C22.031 39.5122 23.4666 40.9478 23.4666 42.7123C23.4666 44.4768 22.031 45.9124 20.2665 45.9124ZM20.2665 41.646C19.6781 41.646 19.1996 42.1239 19.1996 42.7123C19.1996 43.3013 19.6781 43.7792 20.2665 43.7792C20.8549 43.7792 21.3334 43.3013 21.3334 42.7123C21.3334 42.1239 20.8549 41.646 20.2665 41.646Z"
              fill="#E99531"/>
        <path id="Vector_8"
              d="M12.7997 54.4457C11.0352 54.4457 9.59961 53.0101 9.59961 51.2456C9.59961 49.4811 11.0352 48.0455 12.7997 48.0455C14.5642 48.0455 15.9991 49.4811 15.9991 51.2456C15.9991 53.0101 14.5642 54.4457 12.7997 54.4457ZM12.7997 50.1793C12.2107 50.1793 11.7328 50.6572 11.7328 51.2456C11.7328 51.8346 12.2107 52.3125 12.7997 52.3125C13.3881 52.3125 13.866 51.8346 13.866 51.2456C13.866 50.6572 13.3881 50.1793 12.7997 50.1793Z"
              fill="#E99531"/>
        <path id="Vector_9"
              d="M14.9342 23.5125C9.64001 23.5125 5.33398 19.2064 5.33398 13.9122C5.33398 8.61865 9.64001 4.31262 14.9342 4.31262C20.2278 4.31262 24.5338 8.61865 24.5338 13.9122C24.5338 19.2064 20.2278 23.5125 14.9342 23.5125ZM14.9342 6.4458C10.8174 6.4458 7.46716 9.79541 7.46716 13.9122C7.46716 18.0291 10.8174 21.3793 14.9342 21.3793C19.051 21.3793 22.4006 18.0291 22.4006 13.9122C22.4006 9.79541 19.051 6.4458 14.9342 6.4458Z"
              fill="#E99531"/>
        <path id="Vector_10"
              d="M11.8594 8.93787C11.8594 8.84875 11.9174 8.79077 12.0052 8.79077H15.7156C17.8268 8.79077 18.8235 9.84607 18.8235 11.4446C18.8235 12.5737 18.2968 13.2189 17.6656 13.5564V13.5851C18.2821 13.8207 19.0011 14.6123 19.0011 15.8287C19.0011 17.8093 17.7542 18.7621 15.5685 18.7621H12.0052C11.9174 18.7621 11.8594 18.7041 11.8594 18.6156V8.93787ZM15.6716 12.9406C16.5511 12.9406 17.0938 12.4126 17.0938 11.635C17.0938 10.8434 16.5511 10.3154 15.6716 10.3154H13.677C13.6178 10.3154 13.5885 10.3447 13.5885 10.4027V12.8533C13.5885 12.9113 13.6178 12.9406 13.677 12.9406H15.6716ZM13.677 17.2374H15.7595C16.7281 17.2374 17.2695 16.6802 17.2695 15.844C17.2695 15.0231 16.7281 14.4658 15.7595 14.4658H13.677C13.6172 14.4658 13.5885 14.4945 13.5885 14.5543V17.1489C13.5885 17.2081 13.6172 17.2374 13.677 17.2374Z"
              fill="#E99531"/>
        <path id="Vector_11"
              d="M14.4006 9.64587C14.1058 9.64587 13.8672 9.40723 13.8672 9.11243V8.04553C13.8672 7.75134 14.1058 7.5127 14.4006 7.5127C14.6954 7.5127 14.9341 7.75134 14.9341 8.04553V9.11243C14.9341 9.40723 14.6954 9.64587 14.4006 9.64587Z"
              fill="#E99531"/>
        <path id="Vector_12"
              d="M14.4006 20.3124C14.1058 20.3124 13.8672 20.0737 13.8672 19.7789V18.7126C13.8672 18.4178 14.1058 18.1792 14.4006 18.1792C14.6954 18.1792 14.9341 18.4178 14.9341 18.7126V19.7789C14.9341 20.0737 14.6954 20.3124 14.4006 20.3124Z"
              fill="#E99531"/>
    </g>
    <defs>
        <clipPath id="clip0_230_4424">
            <rect width="64" height="64" fill="white"/>
        </clipPath>
    </defs>
</svg>
