<svg width="100" height="100" viewBox="0 0 100 100" fill="none" xmlns="http://www.w3.org/2000/svg">
    <g id="089-rocket">
        <path id="Vector"
              d="M59.1601 99.9997H40.9644C35.1288 99.9997 30.3809 95.2527 30.3809 89.4161V31.2016C30.3809 30.6169 30.3809 29.7347 48.6751 0.716089C49.2758 -0.238371 50.8487 -0.238371 51.4494 0.716089C69.7437 29.7347 69.7437 30.6169 69.7437 31.2016V89.4161C69.7437 95.2527 64.9958 99.9997 59.1601 99.9997ZM33.66 31.4916V89.4161C33.66 93.4423 36.9363 96.7196 40.9644 96.7196H59.1592C63.1873 96.7196 66.4636 93.4423 66.4636 89.4161V31.4916C65.4096 29.2711 56.4507 14.834 50.0613 4.66907C43.6729 14.834 34.7139 29.2711 33.66 31.4916Z"
              fill="#E99531"/>
        <path id="Vector_2"
              d="M94.3459 78.6777H68.1034C67.1968 78.6777 66.4629 77.9448 66.4629 77.0382V60.6359C66.4629 59.7293 67.1968 58.9963 68.1034 58.9963H77.9436C87.8927 58.9963 95.9855 67.0891 95.9855 77.0382C95.9855 77.9448 95.2516 78.6777 94.3459 78.6777ZM69.743 75.3977H92.6144C91.796 68.0266 85.5286 62.2764 77.9436 62.2764H69.743V75.3977Z"
              fill="#E99531"/>
        <path id="Vector_3"
              d="M32.0197 78.6777H5.77723C4.87157 78.6777 4.13672 77.9448 4.13672 77.0382C4.13672 67.0891 12.2304 58.9963 22.1786 58.9963H32.0197C32.9254 58.9963 33.6593 59.7293 33.6593 60.6359V77.0382C33.6593 77.9448 32.9254 78.6777 32.0197 78.6777ZM7.50783 75.3977H30.3792V62.2764H22.1786C14.5935 62.2764 8.32621 68.0266 7.50783 75.3977Z"
              fill="#E99531"/>
        <path id="Vector_4"
              d="M21.6363 92.6521C17.6308 92.6521 15.0762 86.1905 15.0762 82.8109C15.0762 79.193 18.0193 76.2498 21.6363 76.2498C25.2543 76.2498 28.1974 79.193 28.1974 82.8109C28.1974 86.1905 25.6428 92.6521 21.6363 92.6521ZM21.6363 79.5308C19.8278 79.5308 18.3562 81.0024 18.3562 82.8109C18.3562 85.2623 20.4106 89.3711 21.6363 89.3711C22.863 89.3711 24.9173 85.2623 24.9173 82.8109C24.9173 81.0024 23.4458 79.5308 21.6363 79.5308Z"
              fill="#E99531"/>
        <path id="Vector_5"
              d="M79.0426 92.6521C75.037 92.6521 72.4824 86.1905 72.4824 82.8109C72.4824 79.193 75.4256 76.2498 79.0426 76.2498C82.6605 76.2498 85.6037 79.193 85.6037 82.8109C85.6037 86.1905 83.0491 92.6521 79.0426 92.6521ZM79.0426 79.5308C77.2341 79.5308 75.7625 81.0024 75.7625 82.8109C75.7625 85.2623 77.8169 89.3711 79.0426 89.3711C80.2692 89.3711 82.3236 85.2623 82.3236 82.8109C82.3236 81.0024 80.852 79.5308 79.0426 79.5308Z"
              fill="#E99531"/>
        <path id="Vector_6"
              d="M50.062 90.1594C45.5403 90.1594 41.8613 86.4795 41.8613 81.9578C41.8613 77.437 45.5403 73.7571 50.062 73.7571C54.5828 73.7571 58.2627 77.437 58.2627 81.9578C58.2627 86.4795 54.5828 90.1594 50.062 90.1594ZM50.062 77.0382C47.3488 77.0382 45.1414 79.2446 45.1414 81.9578C45.1414 84.671 47.3488 86.8784 50.062 86.8784C52.7752 86.8784 54.9826 84.671 54.9826 81.9578C54.9826 79.2446 52.7752 77.0382 50.062 77.0382Z"
              fill="#E99531"/>
        <path id="Vector_7"
              d="M50.0614 65.5564C40.1123 65.5564 32.0195 57.4637 32.0195 47.5146C32.0195 37.5665 40.1123 29.4728 50.0614 29.4728C60.0095 29.4728 68.1032 37.5665 68.1032 47.5146C68.1032 57.4637 60.0095 65.5564 50.0614 65.5564ZM50.0614 32.7538C41.9217 32.7538 35.2996 39.375 35.2996 47.5146C35.2996 55.6552 41.9217 62.2764 50.0614 62.2764C58.2001 62.2764 64.8222 55.6552 64.8222 47.5146C64.8222 39.375 58.2001 32.7538 50.0614 32.7538Z"
              fill="#E99531"/>
        <path id="Vector_8"
              d="M45.332 39.8649C45.332 39.7288 45.4221 39.6396 45.5573 39.6396H51.2624C54.5087 39.6396 56.0423 41.2614 56.0423 43.7203C56.0423 45.4565 55.2305 46.4476 54.261 46.9675V47.0116C55.2079 47.3739 56.3135 48.5911 56.3135 50.4616C56.3135 53.507 54.3971 54.972 51.0363 54.972H45.5573C45.4221 54.972 45.332 54.8829 45.332 54.7468V39.8649ZM51.1939 46.0205C52.5482 46.0205 53.3816 45.2087 53.3816 44.014C53.3816 42.7958 52.5482 41.984 51.1939 41.984H48.1278C48.0368 41.984 47.9927 42.0291 47.9927 42.1192V45.8863C47.9927 45.9764 48.0368 46.0205 48.1278 46.0205H51.1939ZM48.1278 52.6276H51.33C52.8185 52.6276 53.6519 51.7708 53.6519 50.4841C53.6519 49.2227 52.8185 48.3649 51.33 48.3649H48.1278C48.0368 48.3649 47.9927 48.41 47.9927 48.502V52.4915C47.9927 52.5826 48.0368 52.6276 48.1278 52.6276Z"
              fill="#E99531"/>
        <path id="Vector_9"
              d="M50.8828 40.9545C50.4295 40.9545 50.0625 40.5876 50.0625 40.1343V38.4938C50.0625 38.0414 50.4295 37.6744 50.8828 37.6744C51.3351 37.6744 51.7021 38.0414 51.7021 38.4938V40.1343C51.7021 40.5876 51.3351 40.9545 50.8828 40.9545Z"
              fill="#E99531"/>
        <path id="Vector_10"
              d="M50.8828 57.3559C50.4295 57.3559 50.0625 56.9889 50.0625 56.5356V54.8961C50.0625 54.4428 50.4295 54.0758 50.8828 54.0758C51.3351 54.0758 51.7021 54.4428 51.7021 54.8961V56.5356C51.7021 56.9889 51.3351 57.3559 50.8828 57.3559Z"
              fill="#E99531"/>
    </g>
</svg>
