<svg width="65" height="61" viewBox="0 0 65 61" fill="none" xmlns="http://www.w3.org/2000/svg">
<path d="M35.8127 16.9738C35.8127 16.9336 35.8346 16.8967 35.8698 16.8773L62.7818 2.1197C62.8655 2.07377 62.964 2.14911 62.9416 2.24197L58.3952 21.0723C58.3878 21.1029 58.3676 21.1289 58.3397 21.1436L45.4395 27.9767L45.4358 27.9789C45.2059 28.1199 45.0086 28.3082 44.8571 28.5311C44.7047 28.7552 44.602 29.0092 44.5556 29.276L44.5545 29.2826L40.7039 54.6063C40.6996 54.6344 40.6846 54.6599 40.6619 54.6772L35.9895 58.2426C35.9171 58.2979 35.8127 58.2463 35.8127 58.1552V16.9738ZM50.7635 32.9018C50.7679 32.8662 50.7893 32.835 50.8209 32.8181L57.2818 29.3769C57.3634 29.3334 57.459 29.404 57.4415 29.4948L55.2109 41.0338C55.2045 41.0667 55.1835 41.0949 55.1538 41.1104L49.5676 44.0263C49.489 44.0673 49.3967 44.0033 49.4075 43.9153L50.7635 32.9018ZM24.3381 54.6771C24.3154 54.6598 24.3004 54.6344 24.2961 54.6062L20.4455 29.2826L20.4443 29.276C20.398 29.0092 20.2953 28.7552 20.1429 28.5311C19.9913 28.3082 19.7941 28.1199 19.5641 27.9789L19.5604 27.9767L6.66024 21.1436C6.63238 21.1289 6.61219 21.1029 6.6048 21.0723L2.05841 2.24193C2.03599 2.14907 2.13446 2.07373 2.21823 2.11966L29.1301 16.8764C29.1654 16.8957 29.1873 16.9327 29.1873 16.9728V58.154C29.1873 58.2451 29.0829 58.2967 29.0105 58.2415L24.3381 54.6771ZM7.5587 29.4949C7.54113 29.4041 7.63675 29.3334 7.71841 29.3769L14.1807 32.8192C14.2124 32.836 14.2338 32.8672 14.2382 32.9028L15.5926 43.9154C15.6035 44.0034 15.5111 44.0674 15.4326 44.0264L9.84805 41.1115C9.81833 41.096 9.79731 41.0678 9.79095 41.0349L7.5587 29.4949Z" stroke="#E99531" stroke-width="4"/>
</svg>
