<svg width="108" height="107" viewBox="0 0 108 107" fill="none" xmlns="http://www.w3.org/2000/svg">
    <g id="content">
        <path id="Vector (Stroke)" fill-rule="evenodd" clip-rule="evenodd"
              d="M54.0004 11.6797C30.9036 11.6797 12.1799 30.4033 12.1799 53.5001C12.1799 76.5969 30.9036 95.3206 54.0004 95.3206C77.0972 95.3206 95.8208 76.5969 95.8208 53.5001C95.8208 30.4033 77.0972 11.6797 54.0004 11.6797ZM9.80957 53.5001C9.80957 29.0942 29.5945 9.30933 54.0004 9.30933C78.4063 9.30933 98.1912 29.0942 98.1912 53.5001C98.1912 77.9061 78.4063 97.691 54.0004 97.691C29.5945 97.691 9.80957 77.9061 9.80957 53.5001Z"
              fill="#E99531"/>
        <path id="Vector (Stroke)_2" fill-rule="evenodd" clip-rule="evenodd"
              d="M54.0003 2.537C25.8543 2.537 3.03736 25.3539 3.03736 53.5C3.03736 81.646 25.8543 104.463 54.0003 104.463C82.1464 104.463 104.963 81.646 104.963 53.5C104.963 25.3539 82.1464 2.537 54.0003 2.537ZM0.666992 53.5C0.666992 24.0448 24.5451 0.166626 54.0003 0.166626C83.4555 0.166626 107.334 24.0448 107.334 53.5C107.334 82.9551 83.4555 106.833 54.0003 106.833C24.5451 106.833 0.666992 82.9551 0.666992 53.5Z"
              fill="#E99531"/>
        <path id="Vector (Stroke)_3" fill-rule="evenodd" clip-rule="evenodd"
              d="M77.5829 28.6111L72.9907 46.1255L63.5926 52.1873C63.5926 52.1873 63.5927 52.1873 63.5926 52.1873C63.5024 52.2455 63.4253 52.3222 63.3666 52.4122C63.3078 52.5022 63.2687 52.6035 63.2517 52.7096L59.6337 75.2572L54.6064 79.1519V44.0193L77.5829 28.6111ZM56.9768 45.2837V74.317L57.4417 73.9569L60.9111 52.335C60.9111 52.3351 60.9111 52.3348 60.9111 52.335C60.9807 51.9005 61.1411 51.485 61.3816 51.1165C61.6222 50.7479 61.9377 50.4341 62.3076 50.1954L70.9315 44.633L73.7017 34.0679L56.9768 45.2837ZM72.4069 48.2317L69.5585 59.5447L62.6545 63.8841L64.3851 53.2706L72.4069 48.2317ZM66.5523 54.7085L65.839 59.0829L67.492 58.0439L68.6661 53.3807L66.5523 54.7085Z"
              fill="#999999"/>
        <path id="Vector (Stroke)_4" fill-rule="evenodd" clip-rule="evenodd"
              d="M30.297 28.6111L34.8892 46.1255L44.2872 52.1873C44.2873 52.1873 44.2872 52.1873 44.2872 52.1873C44.3775 52.2455 44.4546 52.3222 44.5133 52.4122C44.5721 52.5022 44.6112 52.6035 44.6282 52.7096L48.2462 75.2572L53.2734 79.1519V44.0193L30.297 28.6111ZM50.9031 45.2837V74.317L50.4382 73.9569L46.9688 52.335C46.9688 52.3351 46.9687 52.3348 46.9688 52.335C46.8992 51.9005 46.7388 51.485 46.4983 51.1165C46.2577 50.7479 45.9421 50.4341 45.5722 50.1954L36.9484 44.633L34.1782 34.0679L50.9031 45.2837ZM35.473 48.2317L38.3214 59.5447L45.2254 63.8841L43.4948 53.2706L35.473 48.2317ZM41.3276 54.7085L42.0409 59.0829L40.3879 58.0439L39.2138 53.3807L41.3276 54.7085Z"
              fill="#999999"/>
    </g>
</svg>
