<svg width="107" height="91" viewBox="0 0 107 91" fill="none" xmlns="http://www.w3.org/2000/svg">
    <g id="content">
        <path id="Vector"
              d="M36.2576 55.9047C35.92 55.9047 35.5805 55.8036 35.2867 55.5919C34.5381 55.055 34.3674 54.0135 34.9043 53.2659L47.5987 35.5971L42.1837 31.709L29.1679 49.8269C28.6301 50.5756 27.5858 50.7463 26.8419 50.2093C26.0933 49.6724 25.9226 48.631 26.4595 47.8833L40.448 28.4112C40.984 27.6626 42.0292 27.4919 42.774 28.0288L50.8955 33.8624C51.255 34.1209 51.4982 34.51 51.5698 34.9458C51.6394 35.3826 51.5354 35.8298 51.2779 36.1875L37.6127 55.2095C37.2875 55.6634 36.7764 55.9047 36.2576 55.9047Z"
              fill="#999999"/>
        <path id="Vector_2"
              d="M21.8333 90.5223C9.8866 90.5223 0.166748 80.8024 0.166748 68.8557C0.166748 56.9091 9.8866 47.1892 21.8333 47.1892C32.1797 47.1892 41.1242 54.5487 43.0993 64.6891C43.2757 65.5923 42.6863 66.4677 41.7832 66.6432C40.8801 66.8187 40.0036 66.2303 39.8282 65.3271C38.1564 56.7479 30.588 50.5223 21.8333 50.5223C11.7243 50.5223 3.49984 58.7468 3.49984 68.8557C3.49984 78.9647 11.7243 87.1892 21.8333 87.1892C29.395 87.1892 36.0859 82.6478 38.8793 75.6192C39.2207 74.7638 40.1896 74.3479 41.0441 74.6855C41.9005 75.0251 42.3163 75.9959 41.9777 76.8504C38.678 85.1559 30.7702 90.5223 21.8333 90.5223Z"
              fill="#E99531"/>
        <path id="Vector_3"
              d="M53.5 43.8552C51.0176 43.8552 48.5867 43.4385 46.2693 42.6183C45.4014 42.3112 44.9475 41.3585 45.2546 40.4916C45.5588 39.6238 46.5134 39.1698 47.3822 39.4769C49.3401 40.1702 51.3991 40.5221 53.5 40.5221C63.609 40.5221 71.8335 32.2976 71.8335 22.1887C71.8335 12.0797 63.609 3.85525 53.5 3.85525C43.3911 3.85525 35.1666 12.0797 35.1666 22.1887C35.1666 26.0558 36.3549 29.7523 38.6046 32.8784C39.1434 33.6261 38.9717 34.6675 38.225 35.2044C37.4783 35.7414 36.4378 35.5726 35.899 34.8258C33.2392 31.1294 31.8335 26.7596 31.8335 22.1887C31.8335 10.242 41.5533 0.522156 53.5 0.522156C65.4467 0.522156 75.1666 10.242 75.1666 22.1887C75.1666 34.1354 65.4467 43.8552 53.5 43.8552Z"
              fill="#E99531"/>
        <path id="Vector_4"
              d="M85.1668 90.5223C73.2201 90.5223 63.5002 80.8024 63.5002 68.8557C63.5002 63.9186 65.2045 59.0882 68.3001 55.2535C68.8742 54.5373 69.928 54.4238 70.6442 55.0027C71.3604 55.5806 71.472 56.6296 70.895 57.3468C68.2753 60.5921 66.8333 64.6796 66.8333 68.8557C66.8333 78.9647 75.0578 87.1892 85.1668 87.1892C95.2757 87.1892 103.5 78.9647 103.5 68.8557C103.5 58.7468 95.2757 50.5223 85.1668 50.5223C83.433 50.5223 81.7211 50.7626 80.0751 51.2385C79.1901 51.4922 78.2669 50.9848 78.0114 50.0989C77.7567 49.2158 78.2669 48.2907 79.151 48.0351C81.0955 47.4734 83.1211 47.1892 85.1668 47.1892C97.1135 47.1892 106.833 56.9091 106.833 68.8557C106.833 80.8024 97.1135 90.5223 85.1668 90.5223Z"
              fill="#E99531"/>
        <path id="Vector_5"
              d="M76.8041 66.6613C76.2853 66.6613 75.7741 66.4201 75.4489 65.9661L58.3505 42.1672C58.0415 41.7361 57.9547 41.183 58.1207 40.6785C58.2857 40.1721 58.6824 39.7763 59.1869 39.6113C62.1137 38.6567 64.7869 36.9439 66.9135 34.6551C67.2531 34.2898 67.7242 34.1105 68.2401 34.1258C68.7379 34.1563 69.1976 34.4109 69.4885 34.8172L86.2789 58.1898C86.5364 58.5475 86.6403 58.9957 86.5697 59.4315C86.4982 59.8674 86.256 60.2565 85.8964 60.5159L77.7749 66.3485C77.4812 66.5602 77.1408 66.6613 76.8041 66.6613ZM62.3149 41.9726L77.1837 62.6693L82.5986 58.7802L67.913 38.3382C66.2393 39.8335 64.3463 41.0628 62.3149 41.9726Z"
              fill="#999999"/>
        <path id="Vector_6"
              d="M66.3289 77.1888H31.8335C30.9123 77.1888 30.1665 76.443 30.1665 75.5218V65.5215C30.1665 64.6003 30.9123 63.8555 31.8335 63.8555H65.4668C65.956 63.8555 66.4214 64.072 66.739 64.4448C67.0556 64.8187 67.192 65.3136 67.1109 65.7971C66.9249 66.9072 66.8343 67.9076 66.8343 68.8556C66.8343 70.9098 67.192 72.9669 67.9005 74.9658C68.0808 75.4769 68.0026 76.0425 67.6898 76.484C67.377 76.9265 66.8696 77.1888 66.3289 77.1888ZM33.5005 73.8557H64.0973C63.7006 72.2049 63.5003 70.5312 63.5003 68.8556C63.5003 68.3129 63.5251 67.7598 63.5737 67.1886H33.5005V73.8557Z"
              fill="#999999"/>
    </g>
</svg>
