<svg width="97" height="98" viewBox="0 0 97 98" fill="none" xmlns="http://www.w3.org/2000/svg">
    <g id="012-bitcoin" clip-path="url(#clip0_286_42012)">
        <path id="Vector"
              d="M48.5003 97.3337C21.8495 97.3337 0.166748 75.651 0.166748 49.0002C0.166748 22.3494 21.8495 0.666664 48.5003 0.666664C75.151 0.666664 96.8338 22.3494 96.8338 49.0002C96.8338 75.651 75.151 97.3337 48.5003 97.3337ZM48.5003 3.88865C23.625 3.88865 3.38874 24.125 3.38874 49.0002C3.38874 73.8745 23.625 94.1108 48.5003 94.1108C73.3746 94.1108 93.6109 73.8745 93.6109 49.0002C93.6109 24.125 73.3746 3.88865 48.5003 3.88865Z"
              fill="#E99531"/>
        <path id="Vector_2"
              d="M48.5003 92.5003C24.5147 92.5003 5.00024 72.9858 5.00024 49.0002C5.00024 25.0146 24.5147 5.50011 48.5003 5.50011C72.4859 5.50011 92.0004 25.0146 92.0004 49.0002C92.0004 72.9858 72.4859 92.5003 48.5003 92.5003ZM48.5003 8.7221C26.2903 8.7221 8.22223 26.7901 8.22223 49.0002C8.22223 71.2093 26.2903 89.2773 48.5003 89.2773C70.7094 89.2773 88.7775 71.2093 88.7775 49.0002C88.7775 26.7901 70.7094 8.7221 48.5003 8.7221Z"
              fill="#E99531"/>
        <g id="Vector_3">
            <path d="M53.7378 47.4813H35.8807C35.0918 47.4813 34.4526 46.8689 34.4526 46.1115V25.5557C34.4526 24.7982 35.0918 24.1858 35.8807 24.1858H53.7378C60.4343 24.1858 65.8809 29.4112 65.8809 35.8332C65.8809 42.2559 60.4343 47.4813 53.7378 47.4813ZM37.3096 44.7408H53.7378C58.8582 44.7408 63.0239 40.7449 63.0239 35.8332C63.0239 30.9222 58.8582 26.9263 53.7378 26.9263H37.3096V44.7408Z"
                  fill="#999999"/>
            <path d="M58.0236 72.1475H35.8807C35.0918 72.1475 34.4526 71.5351 34.4526 70.7777V46.1115C34.4526 45.354 35.0918 44.7408 35.8807 44.7408H58.0236C64.7193 44.7408 70.1667 49.9662 70.1667 56.389V60.5001C70.1667 66.9221 64.7193 72.1475 58.0236 72.1475ZM37.3096 69.407H58.0236C63.1441 69.407 67.3098 65.4111 67.3098 60.5001V56.389C67.3098 51.4772 63.1441 47.4813 58.0236 47.4813H37.3096V69.407Z"
                  fill="#999999"/>
            <path d="M40.1665 26.9263H31.5948C30.806 26.9263 30.1667 26.3131 30.1667 25.5557C30.1667 24.7982 30.806 24.1858 31.5948 24.1858H40.1665C40.9554 24.1858 41.5954 24.7982 41.5954 25.5557C41.5954 26.3131 40.9554 26.9263 40.1665 26.9263Z"
                  fill="#999999"/>
            <path d="M40.1665 72.1475H31.5948C30.806 72.1475 30.1667 71.5351 30.1667 70.7777C30.1667 70.0202 30.806 69.407 31.5948 69.407H40.1665C40.9554 69.407 41.5954 70.0202 41.5954 70.7777C41.5954 71.5351 40.9554 72.1475 40.1665 72.1475Z"
                  fill="#999999"/>
            <path d="M38.7377 79C37.9488 79 37.3096 78.3868 37.3096 77.6293V72.1475C37.3096 71.3901 37.9488 70.7777 38.7377 70.7777C39.5273 70.7777 40.1665 71.3901 40.1665 72.1475V77.6293C40.1665 78.3868 39.5273 79 38.7377 79Z"
                  fill="#999999"/>
            <path d="M43.0235 79C42.2347 79 41.5954 78.3868 41.5954 77.6293L41.5954 70.7777C41.5954 70.0202 42.2347 69.407 43.0235 69.407C43.8123 69.407 44.4524 70.0202 44.4524 70.7777V77.6293C44.4524 78.3868 43.8123 79 43.0235 79Z"
                  fill="#999999"/>
            <path d="M38.7377 25.5557C37.9488 25.5557 37.3096 24.9433 37.3096 24.1858V18.704C37.3096 17.9465 37.9488 17.3333 38.7377 17.3333C39.5273 17.3333 40.1665 17.9465 40.1665 18.704V24.1858C40.1665 24.9433 39.5273 25.5557 38.7377 25.5557Z"
                  fill="#999999"/>
            <path d="M43.0235 26.9263C42.2347 26.9263 41.5954 26.3131 41.5954 25.5557L41.5954 18.704C41.5954 17.9465 42.2347 17.3333 43.0235 17.3333C43.8123 17.3333 44.4524 17.9465 44.4524 18.704V25.5557C44.4524 26.3131 43.8123 26.9263 43.0235 26.9263Z"
                  fill="#999999"/>
        </g>
    </g>
    <defs>
        <clipPath id="clip0_286_42012">
            <rect width="96.6667" height="96.6667" fill="white" transform="translate(0.166748 0.666664)"/>
        </clipPath>
    </defs>
</svg>
