<svg width="100" height="100" viewBox="0 0 100 100" fill="none" xmlns="http://www.w3.org/2000/svg">
    <g id="017-bitcoin" clip-path="url(#clip0_230_4323)">
        <path id="Vector"
              d="M55.0003 89.3391H45C44.0797 89.3391 43.333 88.5943 43.333 87.673V76.0058C43.333 75.0845 44.0797 74.3387 45 74.3387H55.0003C55.9206 74.3387 56.6663 75.0845 56.6663 76.0058V87.673C56.6663 88.5943 55.9206 89.3391 55.0003 89.3391ZM46.6671 86.006H53.3332V77.6728H46.6671V86.006Z"
              fill="#E99531"/>
        <path id="Vector_2"
              d="M93.5268 77.6728H6.47259C2.90394 77.6728 0 74.7688 0 71.1992V20.8118C0 17.2432 2.90394 14.3392 6.47259 14.3392H15.0013C15.9216 14.3392 16.6674 15.085 16.6674 16.0063C16.6674 16.9275 15.9216 17.6723 15.0013 17.6723H6.47259C4.74167 17.6723 3.33309 19.0799 3.33309 20.8118V71.1992C3.33309 72.9311 4.74167 74.3387 6.47259 74.3387H93.5268C95.2578 74.3387 96.6664 72.9311 96.6664 71.1992V20.8118C96.6664 19.0799 95.2578 17.6723 93.5268 17.6723H85C84.0798 17.6723 83.333 16.9275 83.333 16.0063C83.333 15.085 84.0798 14.3392 85 14.3392H93.5268C97.0965 14.3392 100 17.2432 100 20.8118V71.1992C100 74.7688 97.0965 77.6728 93.5268 77.6728Z"
              fill="#E99531"/>
        <path id="Vector_3"
              d="M63.3337 94.3392H36.667C35.7467 94.3392 35 93.5934 35 92.6722V87.673C35 86.7518 35.7467 86.006 36.667 86.006H63.3337C64.254 86.006 64.9997 86.7518 64.9997 87.673V92.6722C64.9997 93.5934 64.254 94.3392 63.3337 94.3392ZM38.3331 91.0061H61.6666V89.3391H38.3331V91.0061Z"
              fill="#E99531"/>
        <path id="Vector_4"
              d="M84.9997 36.0058H15C14.0797 36.0058 13.333 35.2601 13.333 34.3388V7.67217C13.333 6.75092 14.0797 6.0061 15 6.0061H84.9997C85.92 6.0061 86.6667 6.75092 86.6667 7.67217V34.3388C86.6667 35.2601 85.92 36.0058 84.9997 36.0058ZM16.6661 32.6727H83.3327V9.3392H16.6661V32.6727Z"
              fill="#E99531"/>
        <path id="Vector_5"
              d="M84.9997 77.6728H15C14.0797 77.6728 13.333 76.927 13.333 76.0058V34.3388C13.333 33.4175 14.0797 32.6727 15 32.6727H84.9997C85.92 32.6727 86.6667 33.4175 86.6667 34.3388V76.0058C86.6667 76.927 85.92 77.6728 84.9997 77.6728ZM16.6661 74.3388H83.3327V36.0058H16.6661V74.3388Z"
              fill="#E99531"/>
        <path id="Vector_6"
              d="M46.6671 26.0056C42.9907 26.0056 40 23.0158 40 19.3394C40 15.663 42.9907 12.6722 46.6671 12.6722C50.3426 12.6722 53.3333 15.663 53.3333 19.3394C53.3333 23.0158 50.3426 26.0056 46.6671 26.0056ZM46.6671 16.0063C44.8285 16.0063 43.3331 17.5016 43.3331 19.3394C43.3331 21.1771 44.8285 22.6725 46.6671 22.6725C48.5049 22.6725 50.0002 21.1771 50.0002 19.3394C50.0002 17.5016 48.5049 16.0063 46.6671 16.0063Z"
              fill="#E99531"/>
        <path id="Vector_7"
              d="M55.0001 29.3396C54.5738 29.3396 54.1466 29.1766 53.8214 28.8514L49.6548 24.6838C49.0044 24.0334 49.0044 22.9786 49.6548 22.3273C50.3052 21.6769 51.3609 21.6769 52.0113 22.3273L56.1779 26.4939C56.8293 27.1452 56.8293 28.2 56.1779 28.8514C55.8527 29.1766 55.4264 29.3396 55.0001 29.3396Z"
              fill="#E99531"/>
        <path id="Vector_8"
              d="M50.0005 74.3387C38.9722 74.3387 30 65.3675 30 54.3392C30 43.31 38.9722 34.3387 50.0005 34.3387C61.0278 34.3387 70 43.31 70 54.3392C70 65.3675 61.0278 74.3387 50.0005 74.3387ZM50.0005 37.6728C40.8099 37.6728 33.334 45.1496 33.334 54.3392C33.334 63.5288 40.8099 71.0056 50.0005 71.0056C59.191 71.0056 66.6669 63.5288 66.6669 54.3392C66.6669 45.1496 59.191 37.6728 50.0005 37.6728Z"
              fill="#E99531"/>
        <path id="Vector_9"
              d="M44.6084 45.1286C44.6084 44.9532 44.7257 44.8378 44.8993 44.8378H52.2721C56.4702 44.8378 58.451 46.9359 58.451 50.1125C58.451 52.3575 57.4019 53.6383 56.1498 54.3087V54.3669C57.3733 54.8342 58.801 56.4077 58.801 58.8263C58.801 62.7602 56.3233 64.6551 51.9813 64.6551H44.8993C44.7257 64.6551 44.6084 64.5378 44.6084 64.3643V45.1286ZM52.1863 53.0842C53.9344 53.0842 55.013 52.0361 55.013 50.4912C55.013 48.9176 53.9344 47.8676 52.1863 47.8676H48.2209C48.1055 47.8676 48.0473 47.9267 48.0473 48.0421V52.9097C48.0473 53.0251 48.1055 53.0842 48.2209 53.0842H52.1863ZM48.2209 61.6243H52.3599C54.2844 61.6243 55.3611 60.5162 55.3611 58.8558C55.3611 57.2231 54.2844 56.115 52.3599 56.115H48.2209C48.1055 56.115 48.0473 56.1731 48.0473 56.2904V61.4479C48.0473 61.5662 48.1055 61.6243 48.2209 61.6243Z"
              fill="#E99531"/>
        <path id="Vector_10"
              d="M50 47.672C49.0797 47.672 48.333 46.9272 48.333 46.006V42.6729C48.333 41.7516 49.0797 41.0059 50 41.0059C50.9203 41.0059 51.6661 41.7516 51.6661 42.6729V46.006C51.6661 46.9272 50.9203 47.672 50 47.672Z"
              fill="#E99531"/>
        <path id="Vector_11"
              d="M50 67.6725C49.0797 67.6725 48.333 66.9267 48.333 66.0055V64.3394C48.333 63.4181 49.0797 62.6724 50 62.6724C50.9203 62.6724 51.6661 63.4181 51.6661 64.3394V66.0055C51.6661 66.9267 50.9203 67.6725 50 67.6725Z"
              fill="#E99531"/>
    </g>
    <defs>
        <clipPath id="clip0_230_4323">
            <rect width="100" height="100" fill="white"/>
        </clipPath>
    </defs>
</svg>
