<svg width="68" height="68" viewBox="0 0 68 68" fill="none" xmlns="http://www.w3.org/2000/svg">
<rect x="14.667" y="14.667" width="38.6667" height="38.6667" rx="6" stroke="#E99531" stroke-width="4"/>
<path d="M23.2002 2C23.2002 0.895431 22.3048 0 21.2002 0C20.0956 0 19.2002 0.895431 19.2002 2H23.2002ZM19.2002 2V8.4H23.2002V2H19.2002Z" fill="#E99531"/>
<path d="M31.7334 2C31.7334 0.895431 30.838 0 29.7334 0C28.6288 0 27.7334 0.895431 27.7334 2H31.7334ZM27.7334 2V8.4H31.7334V2H27.7334Z" fill="#E99531"/>
<path d="M40.2666 2C40.2666 0.895431 39.3712 0 38.2666 0C37.162 0 36.2666 0.895431 36.2666 2H40.2666ZM36.2666 2V8.4H40.2666V2H36.2666Z" fill="#E99531"/>
<path d="M48.7998 2C48.7998 0.895431 47.9044 0 46.7998 0C45.6952 0 44.7998 0.895431 44.7998 2H48.7998ZM44.7998 2V8.4H48.7998V2H44.7998Z" fill="#E99531"/>
<path d="M23.2002 66C23.2002 67.1046 22.3048 68 21.2002 68C20.0956 68 19.2002 67.1046 19.2002 66H23.2002ZM19.2002 66V59.6H23.2002V66H19.2002Z" fill="#E99531"/>
<path d="M31.7334 66C31.7334 67.1046 30.838 68 29.7334 68C28.6288 68 27.7334 67.1046 27.7334 66H31.7334ZM27.7334 66V59.6H31.7334V66H27.7334Z" fill="#E99531"/>
<path d="M40.2666 66C40.2666 67.1046 39.3712 68 38.2666 68C37.162 68 36.2666 67.1046 36.2666 66H40.2666ZM36.2666 66V59.6H40.2666V66H36.2666Z" fill="#E99531"/>
<path d="M48.7998 66C48.7998 67.1046 47.9044 68 46.7998 68C45.6952 68 44.7998 67.1046 44.7998 66H48.7998ZM44.7998 66V59.6H48.7998V66H44.7998Z" fill="#E99531"/>
<path d="M66 23.2002C67.1046 23.2002 68 22.3048 68 21.2002C68 20.0956 67.1046 19.2002 66 19.2002L66 23.2002ZM66 19.2002L59.6 19.2002L59.6 23.2002L66 23.2002L66 19.2002Z" fill="#E99531"/>
<path d="M66 31.7334C67.1046 31.7334 68 30.838 68 29.7334C68 28.6288 67.1046 27.7334 66 27.7334L66 31.7334ZM66 27.7334L59.6 27.7334L59.6 31.7334L66 31.7334L66 27.7334Z" fill="#E99531"/>
<path d="M66 40.2666C67.1046 40.2666 68 39.3712 68 38.2666C68 37.162 67.1046 36.2666 66 36.2666L66 40.2666ZM66 36.2666L59.6 36.2666L59.6 40.2666L66 40.2666L66 36.2666Z" fill="#E99531"/>
<path d="M66 48.7998C67.1046 48.7998 68 47.9044 68 46.7998C68 45.6952 67.1046 44.7998 66 44.7998L66 48.7998ZM66 44.7998L59.6 44.7998L59.6 48.7998L66 48.7998L66 44.7998Z" fill="#E99531"/>
<path d="M2 23.2002C0.89543 23.2002 -4.82823e-08 22.3048 0 21.2002C4.82823e-08 20.0956 0.895431 19.2002 2 19.2002L2 23.2002ZM2 19.2002L8.4 19.2002L8.4 23.2002L2 23.2002L2 19.2002Z" fill="#E99531"/>
<path d="M2 31.7334C0.89543 31.7334 -4.82823e-08 30.838 0 29.7334C4.82823e-08 28.6288 0.895431 27.7334 2 27.7334L2 31.7334ZM2 27.7334L8.4 27.7334L8.4 31.7334L2 31.7334L2 27.7334Z" fill="#E99531"/>
<path d="M2 40.2666C0.89543 40.2666 -4.82823e-08 39.3712 0 38.2666C4.82823e-08 37.162 0.895431 36.2666 2 36.2666L2 40.2666ZM2 36.2666L8.4 36.2666L8.4 40.2666L2 40.2666L2 36.2666Z" fill="#E99531"/>
<path d="M2 48.7998C0.89543 48.7998 -4.82823e-08 47.9044 0 46.7998C4.82823e-08 45.6952 0.895431 44.7998 2 44.7998L2 48.7998ZM2 44.7998L8.4 44.7998L8.4 48.7998L2 48.7998L2 44.7998Z" fill="#E99531"/>
<path d="M23.333 40.4001L29.6411 25.6813C29.6757 25.6005 29.7903 25.6005 29.8249 25.6813L36.133 40.4001" stroke="#E99531" stroke-width="4" stroke-linecap="round"/>
<path d="M25.4668 38.2666L34.0001 38.2666" stroke="#E99531" stroke-width="4"/>
<path d="M43.5996 25.4668V40.4001" stroke="#E99531" stroke-width="4" stroke-linecap="round"/>
</svg>
