<svg width="62" height="62" viewBox="0 0 62 62" fill="none" xmlns="http://www.w3.org/2000/svg">
    <circle cx="31" cy="10.5532" r="8.55319" stroke="#E99531" stroke-width="4"/>
    <circle cx="10.5532" cy="50.1277" r="8.55319" stroke="#E99531" stroke-width="4"/>
    <circle cx="51.4467" cy="50.1277" r="8.55319" stroke="#E99531" stroke-width="4"/>
    <path fill-rule="evenodd" clip-rule="evenodd"
          d="M38.2342 13.7693C38.6717 12.7866 38.9149 11.6983 38.9149 10.5532C38.9149 10.289 38.902 10.0279 38.8767 9.7703C49.6003 13.1204 57.383 23.13 57.383 34.9574C57.383 37.9866 56.8725 40.8965 55.9328 43.6059C54.8443 42.8558 53.5588 42.3711 52.1697 42.2453C52.956 39.9608 53.383 37.509 53.383 34.9574C53.383 25.1272 47.046 16.7771 38.2342 13.7693ZM44.1096 53.1015C40.425 55.7684 35.8961 57.3404 31 57.3404C26.1039 57.3404 21.5749 55.7684 17.8904 53.1015C17.3774 54.366 16.547 55.4678 15.498 56.3081C19.85 59.4733 25.2069 61.3404 31 61.3404C36.793 61.3404 42.15 59.4733 46.5019 56.3081C45.453 55.4678 44.6226 54.366 44.1096 53.1015ZM4.617 34.9574C4.617 37.9866 5.1275 40.8965 6.06716 43.6059C7.15561 42.8557 8.44112 42.371 9.83023 42.2452C9.04392 39.9607 8.617 37.5089 8.617 34.9574C8.617 25.1272 14.954 16.777 23.7658 13.7693C23.3283 12.7866 23.0851 11.6983 23.0851 10.5532C23.0851 10.289 23.0981 10.0278 23.1234 9.77028C12.3997 13.1203 4.617 23.13 4.617 34.9574Z"
          fill="#E99531"/>
</svg>
