<svg width="60" height="65" viewBox="0 0 60 65" fill="none" xmlns="http://www.w3.org/2000/svg">
    <g id="content">
        <path id="Vector"
              d="M20.7274 53.8331C10.6786 53.8331 0 51.2165 0 46.3667V39.9665C0 39.377 0.487521 38.9003 1.09052 38.9003C1.69353 38.9003 2.18167 39.377 2.18167 39.9665V46.3667C2.18167 48.5938 9.2373 51.6999 20.7274 51.6999C22.8373 51.6999 24.9066 51.5894 26.8773 51.3728C27.4709 51.3081 28.0165 51.7292 28.0833 52.3145C28.1507 52.8998 27.7194 53.4266 27.1208 53.4937C25.0695 53.7183 22.9185 53.8331 20.7274 53.8331Z"
              fill="#E99531"/>
        <path id="Vector_2"
              d="M20.7274 47.4333C10.6786 47.4333 0 44.8167 0 39.9663V33.5662C0 32.9766 0.487521 32.4999 1.09052 32.4999C1.69353 32.4999 2.18167 32.9766 2.18167 33.5662V39.9663C2.18167 42.1934 9.2373 45.2995 20.7274 45.2995C22.3966 45.2995 24.0514 45.2299 25.6451 45.0938C26.2618 45.0322 26.7756 45.4771 26.8274 46.0624C26.8804 46.6496 26.436 47.1678 25.8367 47.2185C24.1788 47.3613 22.4597 47.4333 20.7274 47.4333Z"
              fill="#E99531"/>
        <path id="Vector_3"
              d="M40.3636 32.5001C39.7606 32.5001 39.2725 32.0228 39.2725 31.4332V27.1669C39.2725 26.5773 39.7606 26.1 40.3636 26.1C40.9666 26.1 41.4548 26.5773 41.4548 27.1669V31.4332C41.4548 32.0228 40.9666 32.5001 40.3636 32.5001Z"
              fill="#E99531"/>
        <path id="Vector_4"
              d="M20.7274 41.0334C10.6786 41.0334 0 38.4168 0 33.5664V27.1669C0 26.5773 0.487521 26.1 1.09052 26.1C1.69353 26.1 2.18167 26.5773 2.18167 27.1669V33.5664C2.18167 35.7935 9.2373 38.9002 20.7274 38.9002C23.1369 38.9002 25.4859 38.7574 27.7113 38.4748C28.3099 38.3936 28.8567 38.8105 28.9335 39.3946C29.0109 39.9787 28.5902 40.5146 27.9928 40.5891C25.675 40.8845 23.23 41.0334 20.7274 41.0334Z"
              fill="#E99531"/>
        <path id="Vector_5"
              d="M20.7274 34.633C10.6786 34.633 0 32.0164 0 27.1666V20.7665C0 20.1769 0.487521 19.6996 1.09052 19.6996C1.69353 19.6996 2.18167 20.1769 2.18167 20.7665V27.1666C2.18167 29.3938 9.2373 32.4998 20.7274 32.4998C32.2169 32.4998 39.2726 29.3938 39.2726 27.1666V20.7665C39.2726 20.1769 39.7607 19.6996 40.3637 19.6996C40.9667 19.6996 41.4549 20.1769 41.4549 20.7665V27.1666C41.4549 32.0164 30.7756 34.633 20.7274 34.633Z"
              fill="#E99531"/>
        <path id="Vector_6"
              d="M20.7274 28.2331C10.6786 28.2331 0 25.6165 0 20.7667V14.3666C0 13.777 0.487521 13.3003 1.09052 13.3003C1.69353 13.3003 2.18167 13.777 2.18167 14.3666V20.7667C2.18167 22.9939 9.2373 26.0999 20.7274 26.0999C32.2169 26.0999 39.2726 22.9939 39.2726 20.7667V14.3666C39.2726 13.777 39.7607 13.3003 40.3637 13.3003C40.9667 13.3003 41.4549 13.777 41.4549 14.3666V20.7667C41.4549 25.6165 30.7756 28.2331 20.7274 28.2331Z"
              fill="#E99531"/>
        <path id="Vector_7"
              d="M20.7274 21.8336C10.6786 21.8336 0 19.217 0 14.3665V7.96643C0 7.37683 0.487521 6.90015 1.09052 6.90015C1.69353 6.90015 2.18167 7.37683 2.18167 7.96643V14.3665C2.18167 16.5937 9.2373 19.6998 20.7274 19.6998C32.2169 19.6998 39.2726 16.5937 39.2726 14.3665V7.96643C39.2726 7.37683 39.7607 6.90015 40.3637 6.90015C40.9667 6.90015 41.4549 7.37683 41.4549 7.96643V14.3665C41.4549 19.217 30.7756 21.8336 20.7274 21.8336Z"
              fill="#E99531"/>
        <path id="Vector_8"
              d="M20.7274 15.4334C10.6786 15.4334 0 12.8168 0 7.9664C0 3.11657 10.6786 0.5 20.7274 0.5C30.7756 0.5 41.4549 3.11657 41.4549 7.9664C41.4549 12.8168 30.7756 15.4334 20.7274 15.4334ZM20.7274 2.63317C9.2373 2.63317 2.18167 5.73924 2.18167 7.9664C2.18167 10.1936 9.2373 13.3002 20.7274 13.3002C32.2169 13.3002 39.2726 10.1936 39.2726 7.9664C39.2726 5.73924 32.2169 2.63317 20.7274 2.63317Z"
              fill="#E99531"/>
        <path id="Vector_9"
              d="M42.5454 64.5C32.9211 64.5 25.0908 56.8438 25.0908 47.4334C25.0908 38.023 32.9211 30.3668 42.5454 30.3668C52.1698 30.3668 60 38.023 60 47.4334C60 56.8438 52.1698 64.5 42.5454 64.5ZM42.5454 32.5C34.124 32.5 27.2725 39.1986 27.2725 47.4334C27.2725 55.6676 34.124 62.3662 42.5454 62.3662C50.9669 62.3662 57.8184 55.6676 57.8184 47.4334C57.8184 39.1986 50.9669 32.5 42.5454 32.5Z"
              fill="#999999"/>
        <path id="Vector_10"
              d="M42.5453 61.2999C34.7256 61.2999 28.3635 55.0793 28.3635 47.4334C28.3635 39.7876 34.7256 33.5663 42.5453 33.5663C50.365 33.5663 56.7271 39.7876 56.7271 47.4334C56.7271 55.0793 50.365 61.2999 42.5453 61.2999ZM42.5453 35.7001C35.9285 35.7001 30.5452 40.9631 30.5452 47.4334C30.5452 53.9031 35.9285 59.1662 42.5453 59.1662C49.1621 59.1662 54.5454 53.9031 54.5454 47.4334C54.5454 40.9631 49.1621 35.7001 42.5453 35.7001Z"
              fill="#999999"/>
        <path id="Vector_11"
              d="M39.0161 41.5387C39.0161 41.4258 39.0929 41.3519 39.2071 41.3519H44.033C46.7802 41.3519 48.0768 42.6947 48.0768 44.7284C48.0768 46.1645 47.3907 46.9842 46.5705 47.4133V47.4511C47.372 47.7502 48.3058 48.7573 48.3058 50.3051C48.3058 52.8228 46.6847 54.0356 43.842 54.0356H39.2071C39.0929 54.0356 39.0161 53.9605 39.0161 53.8488V41.5387ZM43.9762 46.6302C45.1204 46.6302 45.827 45.9588 45.827 44.9707C45.827 43.9636 45.1204 43.2916 43.9762 43.2916H41.3813C41.3058 43.2916 41.2671 43.3289 41.2671 43.4027V46.5185C41.2671 46.5924 41.3058 46.6302 41.3813 46.6302H43.9762ZM41.3813 52.0953H44.0904C45.3495 52.0953 46.0549 51.3861 46.0549 50.3235C46.0549 49.2785 45.3495 48.5693 44.0904 48.5693H41.3813C41.3058 48.5693 41.2671 48.6072 41.2671 48.6822V51.983C41.2671 52.0581 41.3058 52.0953 41.3813 52.0953Z"
              fill="#999999"/>
        <path id="Vector_12"
              d="M42.5454 43.1666C41.9424 43.1666 41.4548 42.6893 41.4548 42.0997V39.9665C41.4548 39.377 41.9424 38.9003 42.5454 38.9003C43.1484 38.9003 43.6365 39.377 43.6365 39.9665V42.0997C43.6365 42.6893 43.1484 43.1666 42.5454 43.1666Z"
              fill="#999999"/>
        <path id="Vector_13"
              d="M42.5454 55.9667C41.9424 55.9667 41.4548 55.4894 41.4548 54.8998V53.8329C41.4548 53.2433 41.9424 52.7666 42.5454 52.7666C43.1484 52.7666 43.6365 53.2433 43.6365 53.8329V54.8998C43.6365 55.4894 43.1484 55.9667 42.5454 55.9667Z"
              fill="#999999"/>
    </g>
</svg>
