<svg width="80" height="73" viewBox="0 0 80 73" fill="none" xmlns="http://www.w3.org/2000/svg">
    <path d="M26 20H54C62.8366 20 70 27.1634 70 36V55C70 63.8366 62.8366 71 54 71H26C17.1634 71 10 63.8366 10 55V36C10 27.1634 17.1634 20 26 20Z"
          stroke="#E99531" stroke-width="4"/>
    <path d="M47.875 56C43.5258 60.3493 36.4742 60.3493 32.125 56" stroke="#E99531" stroke-width="4"
          stroke-linecap="round"/>
    <circle cx="24.2499" cy="40.25" r="5" stroke="#E99531" stroke-width="4"/>
    <circle cx="55.7499" cy="40.25" r="5" stroke="#E99531" stroke-width="4"/>
    <path d="M6.42559 35.5885L10 34.6165V56.3835L6.42559 55.4115C3.8131 54.7011 2 52.3291 2 49.6218V41.3782C2 38.6709 3.8131 36.2989 6.42559 35.5885Z"
          stroke="#E99531" stroke-width="4"/>
    <path d="M73.5744 35.5885L70 34.6165V56.3835L73.5744 55.4115C76.1869 54.7011 78 52.3291 78 49.6218V41.3782C78 38.6709 76.1869 36.2989 73.5744 35.5885Z"
          stroke="#E99531" stroke-width="4"/>
    <path d="M40 20V12" stroke="#E99531" stroke-width="4" stroke-linecap="round"/>
    <path d="M44.1251 6.125C44.1251 8.40318 42.2783 10.25 40.0001 10.25C37.7219 10.25 35.8751 8.40318 35.8751 6.125C35.8751 3.84683 37.7219 2 40.0001 2C42.2783 2 44.1251 3.84683 44.1251 6.125Z"
          stroke="#E99531" stroke-width="4"/>
</svg>
