<svg width="64" height="66" viewBox="0 0 64 66" fill="none" xmlns="http://www.w3.org/2000/svg">
    <path fill-rule="evenodd" clip-rule="evenodd"
          d="M4 7.85645C4 5.72659 5.72659 4 7.85645 4C9.98631 4 11.7129 5.72659 11.7129 7.85645L11.7129 33.3492L11.7129 52.0095C11.7129 59.7415 17.9809 66.0095 25.7129 66.0095L49.9425 66.0095C57.6745 66.0095 63.9425 59.7415 63.9425 52.0095L63.9425 14C63.9425 6.268 57.6745 -2.52103e-06 49.9425 -2.18306e-06L8.54544 -3.73533e-07C8.46745 -3.70124e-07 8.39051 0.00446354 8.31484 0.0131499C8.16316 0.00442314 8.01032 -3.50142e-07 7.85645 -3.43416e-07C3.51745 -1.53753e-07 1.53753e-07 3.51745 3.43416e-07 7.85645L2.07514e-06 47.4736C2.24817e-06 51.4321 3.20899 54.6411 7.16746 54.6411C8.27203 54.6411 9.16746 53.7456 9.16746 52.6411C9.16746 51.5365 8.27202 50.6411 7.16746 50.6411C5.41812 50.6411 4 49.223 4 47.4736L4 7.85645ZM14.7029 4L49.9425 4C55.4653 4 59.9425 8.47714 59.9425 14L59.9425 52.0095C59.9425 57.5323 55.4653 62.0095 49.9425 62.0095L25.7129 62.0095C20.1901 62.0095 15.7129 57.5323 15.7129 52.0095L15.7129 33.3492L15.7129 7.85645C15.7129 6.45498 15.3459 5.13921 14.7029 4Z"
          fill="#E99531"/>
    <path d="M23.3588 17.1579H52.2966" stroke="#E99531" stroke-width="4" stroke-linecap="round"/>
    <path d="M23.3588 25.4258H37.1387" stroke="#E99531" stroke-width="4" stroke-linecap="round"/>
    <path d="M23.3588 39.2057H52.2966" stroke="#E99531" stroke-width="4" stroke-linecap="round"/>
    <path d="M23.3588 47.4736H37.1387" stroke="#E99531" stroke-width="4" stroke-linecap="round"/>
</svg>
