<svg width="107" height="86" viewBox="0 0 107 86" fill="none" xmlns="http://www.w3.org/2000/svg">
    <g id="content">
        <path id="Vector"
              d="M96.6873 85.6667H10.3127C4.71881 85.6667 0.166626 81.1323 0.166626 75.5603V17.8563C0.166626 12.2843 4.71881 7.74988 10.3127 7.74988H44.6112C44.9856 7.74988 45.3518 7.86944 45.656 8.08933L54.9668 14.8337H64.1668C65.1495 14.8337 65.944 15.6251 65.944 16.6039C65.944 17.5827 65.1495 18.3751 64.1668 18.3751H54.389C54.0137 18.3751 53.6475 18.2555 53.3433 18.0356L44.0324 11.2923H10.3127C6.67905 11.2923 3.72191 14.2369 3.72191 17.8563V75.5603C3.72191 79.1797 6.67905 82.1253 10.3127 82.1253H96.6873C100.321 82.1253 103.277 79.1797 103.277 75.5603V24.9401C103.277 21.3197 100.321 18.3751 96.6873 18.3751H93.2561C92.2734 18.3751 91.4789 17.5827 91.4789 16.6039C91.4789 15.6251 92.2734 14.8337 93.2561 14.8337H96.6873C102.281 14.8337 106.833 19.3681 106.833 24.9401V75.5603C106.833 81.1323 102.281 85.6667 96.6873 85.6667Z"
              fill="#E99531"/>
        <path id="Vector_2"
              d="M49.9518 59.8584C49.2936 59.8584 48.6599 59.4936 48.3526 58.8633L33.7083 29.0001H25.0556C24.073 29.0001 23.2775 28.2077 23.2775 27.2289C23.2775 26.25 24.073 25.4587 25.0556 25.4587H34.8171C35.4967 25.4587 36.1162 25.8437 36.4152 26.4527L51.5468 57.311C51.9771 58.1885 51.6129 59.2494 50.7289 59.678C50.4787 59.8006 50.2132 59.8584 49.9518 59.8584Z"
              fill="#999999"/>
        <path id="Vector_3"
              d="M57.871 62.6457C57.0765 62.6457 56.3522 62.1107 56.1488 61.3072C55.9097 60.3598 56.4855 59.3962 57.4387 59.158L71.5459 55.6166C72.496 55.3795 73.4644 55.952 73.7045 56.9005C73.9435 57.8489 73.3667 58.8115 72.4146 59.0506L58.3064 62.592C58.1609 62.6285 58.0154 62.6457 57.871 62.6457Z"
              fill="#999999"/>
        <path id="Vector_4"
              d="M86.7986 70.5535C86.2859 70.5535 85.7793 70.3357 85.4263 69.9121L78.7999 61.9437C78.1753 61.1909 78.2791 60.0742 79.0359 59.4501C79.7928 58.8259 80.9107 58.9292 81.5394 59.6851L88.1668 67.6535C88.7914 68.4054 88.6876 69.523 87.9308 70.1472C87.5991 70.4208 87.1973 70.5535 86.7986 70.5535Z"
              fill="#999999"/>
        <path id="Vector_5"
              d="M53.4999 66.1875C50.5591 66.1875 48.1665 63.8042 48.1665 60.8749C48.1665 57.9455 50.5591 55.5623 53.4999 55.5623C56.4408 55.5623 58.8334 57.9455 58.8334 60.8749C58.8334 63.8042 56.4408 66.1875 53.4999 66.1875ZM53.4999 59.1037C52.5193 59.1037 51.7218 59.8981 51.7218 60.8749C51.7218 61.8517 52.5193 62.6461 53.4999 62.6461C54.4806 62.6461 55.2771 61.8517 55.2771 60.8749C55.2771 59.8981 54.4806 59.1037 53.4999 59.1037Z"
              fill="#999999"/>
        <path id="Vector_6"
              d="M21.5003 32.5415C18.5594 32.5415 16.1669 30.1582 16.1669 27.2289C16.1669 24.2995 18.5594 21.9163 21.5003 21.9163C24.4412 21.9163 26.8327 24.2995 26.8327 27.2289C26.8327 30.1582 24.4412 32.5415 21.5003 32.5415ZM21.5003 25.4587C20.5187 25.4587 19.7222 26.2521 19.7222 27.2289C19.7222 28.2057 20.5187 29.0001 21.5003 29.0001C22.4809 29.0001 23.2774 28.2057 23.2774 27.2289C23.2774 26.2521 22.4809 25.4587 21.5003 25.4587Z"
              fill="#999999"/>
        <path id="Vector_7"
              d="M76.6108 62.6459C73.6699 62.6459 71.2773 60.2627 71.2773 57.3333C71.2773 54.4039 73.6699 52.0207 76.6108 52.0207C79.5516 52.0207 81.9442 54.4039 81.9442 57.3333C81.9442 60.2627 79.5516 62.6459 76.6108 62.6459ZM76.6108 55.5621C75.6302 55.5621 74.8326 56.3565 74.8326 57.3333C74.8326 58.3101 75.6302 59.1035 76.6108 59.1035C77.5914 59.1035 78.3889 58.3101 78.3889 57.3333C78.3889 56.3565 77.5914 55.5621 76.6108 55.5621Z"
              fill="#999999"/>
        <path id="Vector_8"
              d="M89.0549 76.8127C86.114 76.8127 83.7214 74.4295 83.7214 71.5001C83.7214 68.5707 86.114 66.1875 89.0549 66.1875C91.9957 66.1875 94.3883 68.5707 94.3883 71.5001C94.3883 74.4295 91.9957 76.8127 89.0549 76.8127ZM89.0549 69.7289C88.0742 69.7289 87.2777 70.5233 87.2777 71.5001C87.2777 72.4769 88.0742 73.2703 89.0549 73.2703C90.0365 73.2703 90.833 72.4769 90.833 71.5001C90.833 70.5233 90.0365 69.7289 89.0549 69.7289Z"
              fill="#999999"/>
        <path id="Vector_9"
              d="M78.389 32.5413C69.5654 32.5413 62.3887 25.3926 62.3887 16.6035C62.3887 7.81534 69.5654 0.666687 78.389 0.666687C87.2116 0.666687 94.3883 7.81534 94.3883 16.6035C94.3883 25.3926 87.2116 32.5413 78.389 32.5413ZM78.389 4.20808C71.5276 4.20808 65.944 9.76894 65.944 16.6035C65.944 23.438 71.5276 28.9999 78.389 28.9999C85.2503 28.9999 90.833 23.438 90.833 16.6035C90.833 9.76894 85.2503 4.20808 78.389 4.20808Z"
              fill="#E99531"/>
        <path id="Vector_10"
              d="M73.264 8.34552C73.264 8.19758 73.3607 8.10132 73.5072 8.10132H79.691C83.2097 8.10132 84.8708 9.85327 84.8708 12.507C84.8708 14.3816 83.993 15.4526 82.9401 16.013V16.0606C83.9675 16.4517 85.1658 17.7659 85.1658 19.7854C85.1658 23.0735 83.0876 24.6552 79.4459 24.6552H73.5072C73.3607 24.6552 73.264 24.5589 73.264 24.412V8.34552ZM79.6178 14.9906C81.0836 14.9906 81.988 14.1141 81.988 12.8232C81.988 11.509 81.0836 10.6325 79.6178 10.6325H76.2934C76.1947 10.6325 76.1459 10.6811 76.1459 10.7774V14.8457C76.1459 14.9419 76.1947 14.9906 76.2934 14.9906H79.6178ZM76.2934 22.124H79.7632C81.3786 22.124 82.2809 21.1989 82.2809 19.8107C82.2809 18.4479 81.3786 17.5228 79.7632 17.5228H76.2934C76.1937 17.5228 76.1459 17.5704 76.1459 17.6697V21.9771C76.1459 22.0754 76.1937 22.124 76.2934 22.124Z"
              fill="#E99531"/>
        <path id="Vector_11"
              d="M77.4999 9.52089C77.0086 9.52089 76.6108 9.1247 76.6108 8.63529V6.86408C76.6108 6.37568 77.0086 5.97949 77.4999 5.97949C77.9912 5.97949 78.389 6.37568 78.389 6.86408V8.63529C78.389 9.1247 77.9912 9.52089 77.4999 9.52089Z"
              fill="#E99531"/>
        <path id="Vector_12"
              d="M77.4999 27.2289C77.0086 27.2289 76.6108 26.8327 76.6108 26.3433V24.5731C76.6108 24.0837 77.0086 23.6875 77.4999 23.6875C77.9912 23.6875 78.389 24.0837 78.389 24.5731V26.3433C78.389 26.8327 77.9912 27.2289 77.4999 27.2289Z"
              fill="#E99531"/>
    </g>
</svg>
