<svg width="700" height="450" viewBox="0 0 700 450" fill="none" xmlns="http://www.w3.org/2000/svg">
    <g clip-path="url(#clip0_255_35174)">
        <rect width="700" height="450" rx="8" fill="#1E1F20" fill-opacity="0.3"/>
        <line x1="4.37114e-08" y1="224.5" x2="700" y2="224.5" stroke="#242424"/>
        <line x1="350.5" y1="-2.18557e-08" x2="350.5" y2="450" stroke="#242424"/>
        <rect x="193.932" y="237.372" width="7.77572" height="29.1002" rx="2" fill="#B05343"/>
        <line x1="197.762" y1="230.316" x2="197.762" y2="269.096" stroke="#B05343"/>
        <rect x="420.522" y="328.558" width="7.77572" height="29.1002" rx="2" fill="#E99531"/>
        <line x1="424.358" y1="318.358" x2="424.358" y2="360.282" stroke="#E99531"/>
        <rect x="47.3042" y="321.502" width="7.77572" height="67.0785" rx="2" fill="#E99531"/>
        <line x1="51.1404" y1="315.213" x2="51.1404" y2="391.725" stroke="#E99531"/>
        <rect x="500.518" y="267.001" width="7.77572" height="67.0785" rx="2" fill="#E99531"/>
        <line x1="504.348" y1="260.712" x2="504.348" y2="337.224" stroke="#E99531"/>
        <rect x="20.6392" y="364.194" width="7.77572" height="29.1002" rx="2" fill="#E99531"/>
        <line x1="24.4697" y1="319.406" x2="24.4697" y2="395.917" stroke="#E99531"/>
        <rect x="473.852" y="309.691" width="7.77572" height="29.1002" rx="2" fill="#E99531"/>
        <line x1="477.683" y1="264.904" x2="477.683" y2="341.415" stroke="#E99531"/>
        <rect x="87.2893" y="306.546" width="7.77572" height="29.1002" rx="2" fill="#E99531"/>
        <line x1="91.1255" y1="296.346" x2="91.1255" y2="338.27" stroke="#E99531"/>
        <rect x="540.502" y="252.046" width="7.77572" height="29.1002" rx="2" fill="#E99531"/>
        <line x1="544.333" y1="241.846" x2="544.333" y2="283.77" stroke="#E99531"/>
        <rect x="607.147" y="253.095" width="7.77572" height="29.1002" rx="2" fill="#E99531"/>
        <line x1="610.984" y1="242.895" x2="610.984" y2="284.819" stroke="#E99531"/>
        <rect x="620.481" y="244.71" width="7.77572" height="29.1002" rx="2" fill="#E99531"/>
        <line x1="624.316" y1="234.51" x2="624.316" y2="276.434" stroke="#E99531"/>
        <rect x="633.812" y="262.527" width="7.77572" height="29.1002" rx="2" fill="#E99531"/>
        <line x1="637.648" y1="252.327" x2="637.648" y2="294.251" stroke="#E99531"/>
        <rect x="647.132" y="276.153" width="7.77572" height="29.1002" rx="2" fill="#E99531"/>
        <line x1="650.968" y1="265.953" x2="650.968" y2="307.877" stroke="#E99531"/>
        <rect x="660.465" y="262.528" width="7.77572" height="29.1002" rx="2" fill="#E99531"/>
        <line x1="664.296" y1="252.327" x2="664.296" y2="294.251" stroke="#E99531"/>
        <rect x="673.798" y="250.998" width="7.77572" height="29.1002" rx="2" fill="#E99531"/>
        <line x1="677.628" y1="240.798" x2="677.628" y2="282.722" stroke="#E99531"/>
        <rect x="687.132" y="260.432" width="7.77572" height="29.1002" rx="2" fill="#E99531"/>
        <line x1="690.968" y1="250.232" x2="690.968" y2="292.156" stroke="#E99531"/>
        <rect x="233.923" y="245.758" width="7.77572" height="29.1002" rx="2" fill="#B05343"/>
        <line x1="237.759" y1="243.943" x2="237.759" y2="282.723" stroke="#B05343"/>
        <rect x="300.56" y="299.175" width="7.77572" height="62.1329" rx="2" fill="#B05343"/>
        <line x1="304.396" y1="295.299" x2="304.396" y2="378.1" stroke="#B05343"/>
        <rect x="247.255" y="253.357" width="7.77572" height="16.5163" rx="2" fill="#B05343"/>
        <line x1="251.091" y1="252.327" x2="251.091" y2="274.337" stroke="#B05343"/>
        <rect x="313.892" y="357.138" width="7.77572" height="55.5494" rx="2" fill="#B05343"/>
        <line x1="317.723" y1="387.533" x2="317.723" y2="426.313" stroke="#B05343"/>
        <rect x="260.575" y="259.646" width="7.77572" height="16.5163" rx="2" fill="#B05343"/>
        <line x1="264.411" y1="258.616" x2="264.411" y2="280.626" stroke="#B05343"/>
        <rect x="380.542" y="392.755" width="7.77572" height="16.5163" rx="2" fill="#E99531"/>
        <line x1="384.372" y1="385.436" x2="384.372" y2="407.447" stroke="#E99531"/>
        <rect x="127.286" y="266.983" width="7.77572" height="16.5163" rx="2" fill="#E99531"/>
        <line x1="131.117" y1="259.664" x2="131.117" y2="281.674" stroke="#E99531"/>
        <rect x="33.9712" y="350.831" width="7.77572" height="16.5163" rx="2" fill="#E99531"/>
        <line x1="37.8074" y1="343.513" x2="37.8074" y2="365.523" stroke="#E99531"/>
        <rect x="487.185" y="296.33" width="7.77572" height="16.5163" rx="2" fill="#E99531"/>
        <line x1="491.021" y1="289.011" x2="491.021" y2="311.022" stroke="#E99531"/>
        <rect x="73.9685" y="306.81" width="7.77572" height="16.5163" rx="2" fill="#E99531"/>
        <line x1="77.8044" y1="299.492" x2="77.8044" y2="321.502" stroke="#E99531"/>
        <rect x="527.169" y="252.309" width="7.77572" height="16.5163" rx="2" fill="#E99531"/>
        <line x1="531.005" y1="244.99" x2="531.005" y2="267" stroke="#E99531"/>
        <rect x="393.87" y="352.663" width="7.77572" height="41.9358" rx="2" fill="#E99531"/>
        <line x1="397.706" y1="334.08" x2="397.706" y2="389.965" stroke="#E99531"/>
        <rect x="100.608" y="293.969" width="7.77572" height="41.9358" rx="2" fill="#E99531"/>
        <line x1="104.444" y1="275.387" x2="104.444" y2="331.272" stroke="#E99531"/>
        <rect x="553.83" y="239.466" width="7.77572" height="41.9358" rx="2" fill="#E99531"/>
        <line x1="557.666" y1="220.884" x2="557.666" y2="276.769" stroke="#E99531"/>
        <rect x="567.156" y="258.333" width="7.77572" height="41.9358" rx="2" fill="#E99531"/>
        <line x1="570.986" y1="239.75" x2="570.986" y2="295.635" stroke="#E99531"/>
        <rect x="580.489" y="252.705" width="7.77572" height="24.5054" rx="2" fill="#E99531"/>
        <line x1="584.325" y1="241.846" x2="584.325" y2="274.502" stroke="#E99531"/>
        <rect x="593.822" y="242.224" width="7.77572" height="24.5054" rx="2" fill="#E99531"/>
        <line x1="597.658" y1="231.365" x2="597.658" y2="264.022" stroke="#E99531"/>
        <rect x="60.6235" y="318.074" width="7.77572" height="41.9358" rx="2" fill="#E99531"/>
        <line x1="64.4595" y1="299.492" x2="64.4595" y2="355.376" stroke="#E99531"/>
        <rect x="513.846" y="263.573" width="7.77572" height="41.9358" rx="2" fill="#E99531"/>
        <line x1="517.677" y1="244.99" x2="517.677" y2="300.875" stroke="#E99531"/>
        <rect x="407.202" y="305.572" width="7.77572" height="49.1985" rx="2" fill="#E99531"/>
        <line x1="411.038" y1="283.77" x2="411.038" y2="349.334" stroke="#E99531"/>
        <rect x="113.947" y="267.84" width="7.77572" height="49.1985" rx="2" fill="#E99531"/>
        <line x1="117.783" y1="246.039" x2="117.783" y2="311.602" stroke="#E99531"/>
        <rect x="273.908" y="269.735" width="7.77572" height="10.2244" rx="2" fill="#B05343"/>
        <line x1="277.744" y1="269.098" x2="277.744" y2="282.723" stroke="#B05343"/>
        <rect x="327.218" y="413.324" width="7.77572" height="10.2244" rx="2" fill="#E99531"/>
        <line x1="331.054" y1="412.687" x2="331.054" y2="426.312" stroke="#E99531"/>
        <rect x="153.938" y="224.189" width="7.77572" height="36.1787" rx="2" fill="#E99531"/>
        <line x1="157.769" y1="221.933" x2="157.769" y2="270.146" stroke="#E99531"/>
        <rect x="167.05" y="213.959" width="7.77572" height="36.1787" rx="2" fill="#E99531"/>
        <line x1="170.88" y1="211.702" x2="170.88" y2="259.915" stroke="#E99531"/>
        <rect x="340.557" y="413.129" width="7.77572" height="7.07843" rx="2" fill="#E99531"/>
        <line x1="344.394" y1="403.254" x2="344.394" y2="420.024" stroke="#E99531"/>
        <rect x="353.885" y="413.129" width="7.77572" height="7.07843" rx="2" fill="#E99531"/>
        <line x1="357.721" y1="403.254" x2="357.721" y2="420.024" stroke="#E99531"/>
        <rect x="140.613" y="265.346" width="7.77572" height="7.07843" rx="2" fill="#E99531"/>
        <line x1="144.449" y1="255.471" x2="144.449" y2="272.241" stroke="#E99531"/>
        <rect x="433.854" y="283.77" width="7.77572" height="57.6456" rx="2" fill="#E99531"/>
        <line x1="437.691" y1="271.193" x2="437.691" y2="352.945" stroke="#E99531"/>
        <rect x="-6.02197" y="331.983" width="7.77572" height="23.0583" rx="2" fill="#E99531"/>
        <rect x="447.188" y="277.482" width="7.77572" height="23.0583" rx="2" fill="#E99531"/>
        <line x1="451.024" y1="274.338" x2="451.024" y2="311.021" stroke="#E99531"/>
        <rect x="7.30615" y="331.982" width="7.77572" height="46.1165" rx="2" fill="#E99531"/>
        <line x1="11.1421" y1="331.983" x2="11.1421" y2="387.532" stroke="#E99531"/>
        <rect x="460.527" y="277.482" width="7.77572" height="46.1165" rx="2" fill="#E99531"/>
        <line x1="464.363" y1="277.482" x2="464.363" y2="333.032" stroke="#E99531"/>
        <rect x="367.218" y="407.888" width="7.77572" height="7.07843" rx="2" fill="#E99531"/>
        <line x1="371.054" y1="404.302" x2="371.054" y2="418.975" stroke="#E99531"/>
        <rect x="287.241" y="272.156" width="7.77572" height="32.2462" rx="2" fill="#B05343"/>
        <line x1="291.071" y1="270.145" x2="291.071" y2="317.31" stroke="#B05343"/>
        <rect x="180.871" y="197.658" width="7.77572" height="29.1002" rx="2" fill="#B05343"/>
        <line x1="184.701" y1="190.603" x2="184.701" y2="229.382" stroke="#B05343"/>
        <rect x="220.584" y="261.2" width="7.77572" height="12.0532" rx="2" fill="#B05343"/>
        <line x1="224.415" y1="253.376" x2="224.415" y2="277.482" stroke="#B05343"/>
        <rect x="207.251" y="236.818" width="7.77572" height="27.7747" rx="2" fill="#B05343"/>
        <line x1="211.087" y1="218.788" x2="211.087" y2="274.338" stroke="#B05343"/>
        <g filter="url(#filter0_f_255_35174)">
            <rect x="193.932" y="237.372" width="7.77572" height="29.1002" rx="2" fill="#B05343"/>
            <line x1="197.762" y1="230.316" x2="197.762" y2="269.096" stroke="#B05343"/>
            <rect x="420.522" y="328.558" width="7.77572" height="29.1002" rx="2" fill="#E99531"/>
            <line x1="424.358" y1="318.358" x2="424.358" y2="360.282" stroke="#E99531"/>
            <rect x="47.3042" y="321.502" width="7.77572" height="67.0785" rx="2" fill="#E99531"/>
            <line x1="51.1404" y1="315.213" x2="51.1404" y2="391.725" stroke="#E99531"/>
            <rect x="500.518" y="267.001" width="7.77572" height="67.0785" rx="2" fill="#E99531"/>
            <line x1="504.348" y1="260.712" x2="504.348" y2="337.224" stroke="#E99531"/>
            <rect x="20.6392" y="364.194" width="7.77572" height="29.1002" rx="2" fill="#E99531"/>
            <line x1="24.4697" y1="319.406" x2="24.4697" y2="395.917" stroke="#E99531"/>
            <rect x="473.852" y="309.691" width="7.77572" height="29.1002" rx="2" fill="#E99531"/>
            <line x1="477.683" y1="264.904" x2="477.683" y2="341.415" stroke="#E99531"/>
            <rect x="87.2893" y="306.546" width="7.77572" height="29.1002" rx="2" fill="#E99531"/>
            <line x1="91.1255" y1="296.346" x2="91.1255" y2="338.27" stroke="#E99531"/>
            <rect x="540.502" y="252.046" width="7.77572" height="29.1002" rx="2" fill="#E99531"/>
            <line x1="544.333" y1="241.846" x2="544.333" y2="283.77" stroke="#E99531"/>
            <rect x="607.147" y="253.095" width="7.77572" height="29.1002" rx="2" fill="#E99531"/>
            <line x1="610.984" y1="242.895" x2="610.984" y2="284.819" stroke="#E99531"/>
            <rect x="620.481" y="244.71" width="7.77572" height="29.1002" rx="2" fill="#E99531"/>
            <line x1="624.316" y1="234.51" x2="624.316" y2="276.434" stroke="#E99531"/>
            <rect x="633.812" y="262.527" width="7.77572" height="29.1002" rx="2" fill="#E99531"/>
            <line x1="637.648" y1="252.327" x2="637.648" y2="294.251" stroke="#E99531"/>
            <rect x="647.132" y="276.153" width="7.77572" height="29.1002" rx="2" fill="#E99531"/>
            <line x1="650.968" y1="265.953" x2="650.968" y2="307.877" stroke="#E99531"/>
            <rect x="660.465" y="262.528" width="7.77572" height="29.1002" rx="2" fill="#E99531"/>
            <line x1="664.296" y1="252.327" x2="664.296" y2="294.251" stroke="#E99531"/>
            <rect x="673.798" y="250.998" width="7.77572" height="29.1002" rx="2" fill="#E99531"/>
            <line x1="677.628" y1="240.798" x2="677.628" y2="282.722" stroke="#E99531"/>
            <rect x="687.132" y="260.432" width="7.77572" height="29.1002" rx="2" fill="#E99531"/>
            <line x1="690.968" y1="250.232" x2="690.968" y2="292.156" stroke="#E99531"/>
            <rect x="233.923" y="245.758" width="7.77572" height="29.1002" rx="2" fill="#B05343"/>
            <line x1="237.759" y1="243.943" x2="237.759" y2="282.723" stroke="#B05343"/>
            <rect x="300.56" y="299.175" width="7.77572" height="62.1329" rx="2" fill="#B05343"/>
            <line x1="304.396" y1="295.299" x2="304.396" y2="378.1" stroke="#B05343"/>
            <rect x="247.255" y="253.357" width="7.77572" height="16.5163" rx="2" fill="#B05343"/>
            <line x1="251.091" y1="252.327" x2="251.091" y2="274.337" stroke="#B05343"/>
            <rect x="313.892" y="357.138" width="7.77572" height="55.5494" rx="2" fill="#B05343"/>
            <line x1="317.723" y1="387.533" x2="317.723" y2="426.313" stroke="#B05343"/>
            <rect x="260.575" y="259.646" width="7.77572" height="16.5163" rx="2" fill="#B05343"/>
            <line x1="264.411" y1="258.616" x2="264.411" y2="280.626" stroke="#B05343"/>
            <rect x="380.542" y="392.755" width="7.77572" height="16.5163" rx="2" fill="#E99531"/>
            <line x1="384.372" y1="385.436" x2="384.372" y2="407.447" stroke="#E99531"/>
            <rect x="127.286" y="266.983" width="7.77572" height="16.5163" rx="2" fill="#E99531"/>
            <line x1="131.117" y1="259.664" x2="131.117" y2="281.674" stroke="#E99531"/>
            <rect x="33.9712" y="350.831" width="7.77572" height="16.5163" rx="2" fill="#E99531"/>
            <line x1="37.8074" y1="343.513" x2="37.8074" y2="365.523" stroke="#E99531"/>
            <rect x="487.185" y="296.33" width="7.77572" height="16.5163" rx="2" fill="#E99531"/>
            <line x1="491.021" y1="289.011" x2="491.021" y2="311.022" stroke="#E99531"/>
            <rect x="73.9685" y="306.81" width="7.77572" height="16.5163" rx="2" fill="#E99531"/>
            <line x1="77.8044" y1="299.492" x2="77.8044" y2="321.502" stroke="#E99531"/>
            <rect x="527.169" y="252.309" width="7.77572" height="16.5163" rx="2" fill="#E99531"/>
            <line x1="531.005" y1="244.99" x2="531.005" y2="267" stroke="#E99531"/>
            <rect x="393.87" y="352.663" width="7.77572" height="41.9358" rx="2" fill="#E99531"/>
            <line x1="397.706" y1="334.08" x2="397.706" y2="389.965" stroke="#E99531"/>
            <rect x="100.608" y="293.969" width="7.77572" height="41.9358" rx="2" fill="#E99531"/>
            <line x1="104.444" y1="275.387" x2="104.444" y2="331.272" stroke="#E99531"/>
            <rect x="553.83" y="239.466" width="7.77572" height="41.9358" rx="2" fill="#E99531"/>
            <line x1="557.666" y1="220.884" x2="557.666" y2="276.769" stroke="#E99531"/>
            <rect x="567.156" y="258.333" width="7.77572" height="41.9358" rx="2" fill="#E99531"/>
            <line x1="570.986" y1="239.75" x2="570.986" y2="295.635" stroke="#E99531"/>
            <rect x="580.489" y="252.705" width="7.77572" height="24.5054" rx="2" fill="#E99531"/>
            <line x1="584.325" y1="241.846" x2="584.325" y2="274.502" stroke="#E99531"/>
            <rect x="593.822" y="242.224" width="7.77572" height="24.5054" rx="2" fill="#E99531"/>
            <line x1="597.658" y1="231.365" x2="597.658" y2="264.022" stroke="#E99531"/>
            <rect x="60.6235" y="318.074" width="7.77572" height="41.9358" rx="2" fill="#E99531"/>
            <line x1="64.4595" y1="299.492" x2="64.4595" y2="355.376" stroke="#E99531"/>
            <rect x="513.846" y="263.573" width="7.77572" height="41.9358" rx="2" fill="#E99531"/>
            <line x1="517.677" y1="244.99" x2="517.677" y2="300.875" stroke="#E99531"/>
            <rect x="407.202" y="305.572" width="7.77572" height="49.1985" rx="2" fill="#E99531"/>
            <line x1="411.038" y1="283.77" x2="411.038" y2="349.334" stroke="#E99531"/>
            <rect x="113.947" y="267.84" width="7.77572" height="49.1985" rx="2" fill="#E99531"/>
            <line x1="117.783" y1="246.039" x2="117.783" y2="311.602" stroke="#E99531"/>
            <rect x="273.908" y="269.735" width="7.77572" height="10.2244" rx="2" fill="#B05343"/>
            <line x1="277.744" y1="269.098" x2="277.744" y2="282.723" stroke="#B05343"/>
            <rect x="327.218" y="413.324" width="7.77572" height="10.2244" rx="2" fill="#E99531"/>
            <line x1="331.054" y1="412.687" x2="331.054" y2="426.312" stroke="#E99531"/>
            <rect x="153.938" y="224.189" width="7.77572" height="36.1787" rx="2" fill="#E99531"/>
            <line x1="157.769" y1="221.933" x2="157.769" y2="270.146" stroke="#E99531"/>
            <rect x="167.05" y="213.959" width="7.77572" height="36.1787" rx="2" fill="#E99531"/>
            <line x1="170.88" y1="211.702" x2="170.88" y2="259.915" stroke="#E99531"/>
            <rect x="340.557" y="413.129" width="7.77572" height="7.07843" rx="2" fill="#E99531"/>
            <line x1="344.394" y1="403.254" x2="344.394" y2="420.024" stroke="#E99531"/>
            <rect x="353.885" y="413.129" width="7.77572" height="7.07843" rx="2" fill="#E99531"/>
            <line x1="357.721" y1="403.254" x2="357.721" y2="420.024" stroke="#E99531"/>
            <rect x="140.613" y="265.346" width="7.77572" height="7.07843" rx="2" fill="#E99531"/>
            <line x1="144.449" y1="255.471" x2="144.449" y2="272.241" stroke="#E99531"/>
            <rect x="433.854" y="283.77" width="7.77572" height="57.6456" rx="2" fill="#E99531"/>
            <line x1="437.691" y1="271.193" x2="437.691" y2="352.945" stroke="#E99531"/>
            <rect x="-6.02197" y="331.983" width="7.77572" height="23.0583" rx="2" fill="#E99531"/>
            <rect x="447.188" y="277.482" width="7.77572" height="23.0583" rx="2" fill="#E99531"/>
            <line x1="451.024" y1="274.338" x2="451.024" y2="311.021" stroke="#E99531"/>
            <rect x="7.30615" y="331.982" width="7.77572" height="46.1165" rx="2" fill="#E99531"/>
            <line x1="11.1421" y1="331.983" x2="11.1421" y2="387.532" stroke="#E99531"/>
            <rect x="460.527" y="277.482" width="7.77572" height="46.1165" rx="2" fill="#E99531"/>
            <line x1="464.363" y1="277.482" x2="464.363" y2="333.032" stroke="#E99531"/>
            <rect x="367.218" y="407.888" width="7.77572" height="7.07843" rx="2" fill="#E99531"/>
            <line x1="371.054" y1="404.302" x2="371.054" y2="418.975" stroke="#E99531"/>
            <rect x="287.241" y="272.156" width="7.77572" height="32.2462" rx="2" fill="#B05343"/>
            <line x1="291.071" y1="270.145" x2="291.071" y2="317.31" stroke="#B05343"/>
            <rect x="180.871" y="197.658" width="7.77572" height="29.1002" rx="2" fill="#B05343"/>
            <line x1="184.701" y1="190.603" x2="184.701" y2="229.382" stroke="#B05343"/>
            <rect x="220.584" y="261.2" width="7.77572" height="12.0532" rx="2" fill="#B05343"/>
            <line x1="224.415" y1="253.376" x2="224.415" y2="277.482" stroke="#B05343"/>
            <rect x="207.251" y="236.818" width="7.77572" height="27.7747" rx="2" fill="#B05343"/>
            <line x1="211.087" y1="218.788" x2="211.087" y2="274.338" stroke="#B05343"/>
        </g>
    </g>
    <defs>
        <filter id="filter0_f_255_35174" x="-662.522" y="-177" width="2053.91" height="721.353"
                filterUnits="userSpaceOnUse" color-interpolation-filters="sRGB">
            <feFlood flood-opacity="0" result="BackgroundImageFix"/>
            <feBlend mode="normal" in="SourceGraphic" in2="BackgroundImageFix" result="shape"/>
            <feGaussianBlur stdDeviation="15" result="effect1_foregroundBlur_255_35174"/>
        </filter>
        <clipPath id="clip0_255_35174">
            <rect width="700" height="450" rx="8" fill="white"/>
        </clipPath>
    </defs>
</svg>
