<svg width="95" height="92" viewBox="0 0 95 92" fill="none" xmlns="http://www.w3.org/2000/svg">
    <path d="M51.8346 28.1897L92.4901 2.67268L84.153 28.7598L66.4057 39.7346C66.4035 39.736 66.4012 39.7373 66.399 39.7387C65.9837 39.9933 65.6275 40.3333 65.3538 40.7359C65.0787 41.1405 64.8931 41.5992 64.8094 42.0811L64.8074 42.0931L57.8413 83.684L51.8346 89.0081L51.8346 28.1897ZM72.8199 46.7206L83.5392 40.2616L79.4136 55.9743L70.3123 61.4595L72.8199 46.7206ZM37.0758 83.6839L30.1098 42.0931L30.1077 42.0811C30.024 41.5992 29.8385 41.1405 29.5633 40.7359C29.2896 40.3333 28.9334 39.9933 28.5181 39.7387C28.5159 39.7373 28.5137 39.736 28.5114 39.7346L10.7641 28.7598L2.42705 2.67262L43.0825 28.188L43.0825 89.0059L37.0758 83.6839ZM11.3782 40.2617L22.1003 46.7225L24.6051 61.4597L15.5068 55.9763L11.3782 40.2617Z"
          stroke="#E99531" stroke-width="4"/>
</svg>
