<svg width="60" height="65" viewBox="0 0 60 65" fill="none" xmlns="http://www.w3.org/2000/svg">
    <g id="content">
        <g id="Group">
            <path id="Vector"
                  d="M31.1116 10.4417V28.0301C31.1116 28.4348 30.9031 28.8111 30.566 29.0177L16.121 37.8101C15.9467 37.9176 15.7512 37.9697 15.5558 37.9697C15.3604 37.9697 15.1649 37.9176 14.9906 37.8101L0.547246 29.0177C0.206846 28.8111 0 28.4348 0 28.0301V10.4417C0 10.037 0.206846 9.66073 0.547246 9.45415L14.9906 0.659978C15.3392 0.446674 15.7724 0.446674 16.121 0.659978L30.566 9.45415C30.9031 9.66073 31.1116 10.037 31.1116 10.4417ZM28.89 27.375V11.0968L15.5558 2.97609L2.22319 11.0968V27.375L15.5558 35.494L28.89 27.375Z"
                  fill="#E99531"/>
            <path id="Vector_2"
                  d="M26.6669 13.3071V25.1665C26.6669 25.5746 26.4536 25.9542 26.1099 26.1591L16.1096 32.0896C15.9386 32.1904 15.7464 32.2408 15.5559 32.2408C15.3653 32.2408 15.1731 32.1904 15.0021 32.0896L5.00184 26.1591C4.65818 25.9542 4.44482 25.5746 4.44482 25.1665V13.3071C4.44482 12.8973 4.65818 12.5177 5.00184 12.3128L15.0021 6.38228C15.3441 6.17905 15.766 6.17905 16.1096 6.38228L26.1099 12.3128C26.4536 12.5177 26.6669 12.8973 26.6669 13.3071ZM24.4454 24.503V13.9688L15.5559 8.69671L6.66638 13.9688V24.503L15.5559 29.7735L24.4454 24.503Z"
                  fill="#999999"/>
        </g>
        <g id="Group_2">
            <path id="Vector_3"
                  d="M60.0001 10.4417V28.0301C60.0001 28.4348 59.7933 28.8111 59.4545 29.0177L45.0095 37.8101C44.8352 37.9176 44.6397 37.9697 44.4459 37.9697C44.2521 37.9697 44.0534 37.9176 43.8808 37.8101L29.4358 29.0177C29.097 28.8111 28.8901 28.4348 28.8901 28.0301V10.4417C28.8901 10.037 29.097 9.66073 29.4358 9.45415L43.8808 0.659978C44.2277 0.446674 44.6609 0.446674 45.0095 0.659978L59.4545 9.45415C59.7933 9.66073 60.0001 10.037 60.0001 10.4417ZM57.7785 27.375V11.0968L44.4459 2.97609L31.1117 11.0968V27.375L44.4459 35.494L57.7785 27.375Z"
                  fill="#E99531"/>
            <path id="Vector_4"
                  d="M55.557 13.3071V25.1665C55.557 25.5746 55.3436 25.9542 55 26.1591L44.9997 32.0896C44.8271 32.1904 44.6365 32.2408 44.4459 32.2408C44.2554 32.2408 44.0632 32.1904 43.8905 32.0896L33.8919 26.1591C33.5466 25.9542 33.3333 25.5746 33.3333 25.1665V13.3071C33.3333 12.8973 33.5466 12.5177 33.8919 12.3128L43.8905 6.38228C44.2342 6.17905 44.656 6.17905 44.9997 6.38228L55 12.3128C55.3436 12.5177 55.557 12.8973 55.557 13.3071ZM53.3338 24.503V13.9688L44.4459 8.69671L35.5564 13.9688V24.503L44.4459 29.7735L53.3338 24.503Z"
                  fill="#999999"/>
        </g>
        <g id="Group_3">
            <path id="Vector_5"
                  d="M45.4833 36.972V54.5603C45.4833 54.9651 45.2764 55.3413 44.9376 55.5479L30.4926 64.3404C30.3183 64.4479 30.1229 64.5 29.9291 64.5C29.7353 64.5 29.5366 64.4479 29.3639 64.3404L14.9189 55.5479C14.5801 55.3413 14.3733 54.9651 14.3733 54.5603V36.972C14.3733 36.5672 14.5801 36.191 14.9189 35.9844L29.3639 27.1903C29.7108 26.9769 30.1441 26.9769 30.4926 27.1903L44.9376 35.9844C45.2764 36.191 45.4833 36.5672 45.4833 36.972ZM43.2617 53.9053V37.627L29.9291 29.5064L16.5948 37.627V53.9053L29.9291 62.0243L43.2617 53.9053Z"
                  fill="#E99531"/>
            <path id="Vector_6"
                  d="M41.0401 39.8374V51.6967C41.0401 52.1049 40.8268 52.4845 40.4831 52.6894L30.4828 58.6199C30.3102 58.7207 30.1196 58.771 29.9291 58.771C29.7385 58.771 29.5463 58.7207 29.3737 58.6199L19.3751 52.6894C19.0298 52.4845 18.8164 52.1049 18.8164 51.6967V39.8374C18.8164 39.4276 19.0298 39.048 19.3751 38.8431L29.3737 32.9126C29.7174 32.7093 30.1392 32.7093 30.4828 32.9126L40.4831 38.8431C40.8268 39.048 41.0401 39.4276 41.0401 39.8374ZM38.8169 51.0333V40.4991L29.9291 35.227L21.0396 40.4991V51.0333L29.9291 56.3038L38.8169 51.0333Z"
                  fill="#999999"/>
        </g>
    </g>
</svg>
