<svg width="58" height="65" viewBox="0 0 58 65" fill="none" xmlns="http://www.w3.org/2000/svg">
    <g id="content">
        <path id="Vector"
              d="M31.1983 19.7C30.5915 19.7 30.0992 19.2227 30.0992 18.6331V7.96648C30.0967 8.00372 30.0904 7.94329 30.0879 7.89934C30.0627 7.48918 30.2828 7.10161 30.6532 6.90263C31.0241 6.70183 31.4781 6.72868 31.8233 6.96855L36.0538 9.90192C36.5316 10.2309 37.2485 10.1143 37.5867 9.6529C37.9389 9.17316 37.8238 8.50665 37.3308 8.16424L29.6396 2.83095C29.2585 2.56728 28.7448 2.56544 28.3606 2.83156L20.6694 8.16424C20.1764 8.50665 20.0619 9.17316 20.4134 9.6529C20.7649 10.1308 21.4541 10.2401 21.9502 9.89948L26.1775 6.96855C26.5214 6.72868 26.9773 6.70305 27.3477 6.90263C27.718 7.10161 27.9381 7.48918 27.9129 7.89934C27.9117 7.92742 27.9022 8.00982 27.8985 8.03851L27.9016 18.6331C27.9016 19.2227 27.4093 19.7 26.8025 19.7C26.1957 19.7 25.704 19.2227 25.704 18.6331V9.9184L23.2241 11.6372C21.7414 12.6601 19.6778 12.3256 18.6252 10.8913C17.5688 9.45819 17.9128 7.45501 19.3917 6.429L27.0842 1.09571C28.2317 0.301634 29.7722 0.301634 30.916 1.09449L38.6085 6.429C40.088 7.45501 40.432 9.45819 39.375 10.8925C38.3589 12.2756 36.2097 12.629 34.778 11.6384L32.2968 9.9184V18.6331C32.2968 19.2227 31.8051 19.7 31.1983 19.7Z"
              fill="#E99531"/>
        <path id="Vector_2"
              d="M28.9999 64.5C28.3284 64.5 27.6568 64.3023 27.0846 63.9055L19.3921 58.571C17.9126 57.5444 17.5686 55.5418 18.6256 54.1075C19.677 52.6738 21.7375 52.3387 23.2214 53.3604L25.7038 55.081V46.3663C25.7038 45.7767 26.1955 45.3 26.8023 45.3C27.4091 45.3 27.9014 45.7767 27.9014 46.3663V57.0329C27.9071 56.9969 27.9096 57.0561 27.9127 57.1001C27.9379 57.5102 27.7178 57.8978 27.3475 58.0968C26.9759 58.2957 26.5213 58.2707 26.1773 58.0309L21.9469 55.0975C21.4539 54.76 20.7641 54.8698 20.4145 55.3459C20.0618 55.8262 20.1762 56.4928 20.6698 56.8352L28.3611 62.1685C28.7434 62.4346 29.2571 62.4352 29.64 62.1678L37.3313 56.8352C37.8236 56.4928 37.9387 55.8262 37.5866 55.3465C37.247 54.8857 36.5327 54.7667 36.0523 55.0987L31.8231 58.0309C31.4792 58.2707 31.024 58.297 30.6524 58.0968C30.282 57.8978 30.0626 57.5102 30.0877 57.1001C30.089 57.072 30.0984 56.9896 30.1022 56.9609L30.099 46.3663C30.099 45.7767 30.5914 45.3 31.1981 45.3C31.8049 45.3 32.2966 45.7767 32.2966 46.3663V55.081L34.7759 53.3622C36.2108 52.3686 38.3581 52.7238 39.3748 54.1075C40.4318 55.5418 40.0879 57.545 38.609 58.571L30.9158 63.9043C30.343 64.301 29.6715 64.5 28.9999 64.5Z"
              fill="#E99531"/>
        <path id="Vector_3"
              d="M12.7296 54.5959C12.3114 54.5959 11.8927 54.5178 11.494 54.3603L2.72941 50.9228C1.42343 50.4095 0.597838 49.1479 0.672663 47.7843L1.18072 38.6205C1.27881 36.8596 2.83945 35.5028 4.65034 35.598C5.71047 35.6517 6.68508 36.2047 7.25602 37.0781C7.62511 37.6402 7.80117 38.2927 7.76533 38.9623L7.60185 41.9176L15.1768 37.2417C15.6886 36.9255 16.3683 37.0726 16.6934 37.5688C17.0191 38.0663 16.8682 38.7261 16.3558 39.0416L7.08373 44.7655C7.10699 44.7582 7.07618 44.7802 7.03343 44.8101C6.68885 45.0518 6.2355 45.0811 5.862 44.8833C5.49039 44.6862 5.26843 44.2998 5.29107 43.8891L5.57025 38.85C5.5822 38.6266 5.52372 38.4105 5.40174 38.2225C5.20996 37.9308 4.88613 37.7464 4.53339 37.7287C3.92284 37.7013 3.4085 38.1487 3.37517 38.7358L2.86648 47.8973C2.84196 48.3526 3.118 48.7731 3.55437 48.9452L12.3165 52.3828C12.5887 52.4884 12.888 52.4853 13.1578 52.3754C13.4275 52.2644 13.6369 52.0581 13.7469 51.7932C13.9746 51.2493 13.701 50.6256 13.1376 50.4028L8.32054 48.5131C7.92944 48.3599 7.66347 48.0035 7.6358 47.5951C7.60813 47.1874 7.82318 46.7986 8.18976 46.5966C8.21742 46.5819 8.29854 46.5423 8.32809 46.5301L17.536 40.8409C18.0478 40.5254 18.7269 40.6737 19.0526 41.1687C19.3783 41.6661 19.2268 42.3259 18.7149 42.6415L11.1394 47.3186L13.9645 48.4271C15.6503 49.0948 16.4658 50.9637 15.7848 52.5952C15.4553 53.3856 14.8272 54.0063 14.0167 54.3396C13.6023 54.5105 13.1659 54.5959 12.7296 54.5959Z"
              fill="#E99531"/>
        <path id="Vector_4"
              d="M53.5293 29.4058C53.4702 29.4058 53.4104 29.4052 53.3507 29.4015C51.5417 29.3087 50.1433 27.8005 50.2351 26.0384L50.3986 23.0819L42.8236 27.7578C42.3112 28.074 41.6327 27.9269 41.307 27.4307C40.9813 26.9332 41.1328 26.2734 41.6447 25.9579L50.9167 20.2339C50.894 20.2455 50.9255 20.2193 50.9676 20.1894C51.3109 19.9489 51.7662 19.9184 52.1384 20.1161C52.51 20.3133 52.732 20.6996 52.71 21.1104L52.4302 26.1495C52.3993 26.7361 52.8646 27.2402 53.467 27.2707C54.0662 27.3061 54.5938 26.8508 54.6259 26.2637L55.1339 17.1022C55.1584 16.6469 54.883 16.2257 54.4467 16.0542L45.684 12.6161C45.4111 12.5093 45.1118 12.5129 44.8426 12.6234C44.5729 12.7351 44.3635 12.9414 44.2535 13.2057C44.1208 13.5249 44.1548 13.8881 44.3459 14.1798C44.4679 14.3672 44.6471 14.5113 44.8621 14.5955L49.6799 16.4864C50.071 16.6396 50.3376 16.9954 50.3652 17.4037C50.3923 17.8121 50.1772 18.2009 49.8107 18.4029C49.783 18.4175 49.7019 18.4572 49.6729 18.4694L40.4644 24.1579C39.9526 24.4735 39.2729 24.327 38.9478 23.8308C38.6221 23.3327 38.7736 22.6735 39.2855 22.358L46.861 17.6808L44.0365 16.5724C43.3927 16.3197 42.8595 15.887 42.4904 15.3236C41.9207 14.4527 41.8176 13.3619 42.2156 12.4061C42.5457 11.6145 43.1732 10.9932 43.9844 10.6599C44.7955 10.3267 45.6915 10.3175 46.5077 10.6392L55.2716 14.0767C56.5776 14.5906 57.4032 15.8516 57.3284 17.2157L56.8203 26.379C56.7241 28.0819 55.266 29.4058 53.5293 29.4058Z"
              fill="#E99531"/>
        <path id="Vector_5"
              d="M46.1074 53.8898C44.8536 53.8898 43.6539 53.194 43.1018 52.0166C42.661 51.0791 42.7151 49.9847 43.2464 49.0893C43.5891 48.5113 44.1041 48.0572 44.7335 47.7789L47.5071 46.5521L39.729 42.199C39.2034 41.9048 39.0235 41.2517 39.326 40.7427C39.629 40.2325 40.3018 40.0548 40.8269 40.3509L50.3466 45.6787C50.3183 45.6579 50.368 45.6811 50.412 45.7019C50.7906 45.8862 51.027 46.264 51.0194 46.6748C51.0113 47.0861 50.7616 47.456 50.3762 47.6269L45.6452 49.7192C45.4352 49.812 45.2642 49.9634 45.1504 50.155C44.9724 50.4541 44.9536 50.8197 45.1007 51.1322C45.3516 51.6687 46.0061 51.9043 46.5582 51.6614L55.1593 47.8558C55.5863 47.6672 55.8422 47.2351 55.7976 46.7816L54.8795 37.6482C54.8512 37.365 54.7104 37.1099 54.484 36.9286C54.2577 36.7485 53.9716 36.6661 53.6792 36.6912C53.0768 36.7473 52.6348 37.2722 52.6914 37.86L53.1963 42.8796C53.2371 43.2903 53.0303 43.6877 52.6643 43.8995C52.2996 44.1107 51.8406 44.0984 51.4872 43.8659C51.4646 43.8513 51.398 43.8036 51.3772 43.7878L41.9247 38.5015C41.3984 38.2079 41.2186 37.5548 41.5217 37.0452C41.8241 36.5337 42.4957 36.3591 43.0226 36.6533L50.8 41.0064L50.5045 38.0626C50.3334 36.3036 51.6627 34.738 53.4667 34.5683C54.3451 34.489 55.1996 34.7392 55.8787 35.2806C56.5596 35.8232 56.9815 36.5911 57.0671 37.4413L57.9845 46.5759C58.1209 47.9351 57.3519 49.2297 56.0711 49.7973L47.4681 53.6029C47.0273 53.7976 46.5639 53.8898 46.1074 53.8898Z"
              fill="#E99531"/>
        <path id="Vector_6"
              d="M4.20706 30.4466C3.44749 30.4466 2.71621 30.1939 2.12139 29.7191C1.44041 29.1758 1.0185 28.4086 0.932988 27.5584L0.0155939 18.4238C-0.120852 17.0645 0.648149 15.7694 1.92898 15.2017L10.532 11.3968C12.1863 10.6674 14.1456 11.3779 14.8989 12.9831C15.6515 14.5816 14.9209 16.4841 13.2691 17.2208L10.493 18.4476L18.271 22.8007C18.7967 23.0949 18.9765 23.7479 18.6741 24.257C18.3704 24.7672 17.6976 24.9412 17.1732 24.6488L7.65341 19.321C7.68171 19.3418 7.63204 19.3186 7.58802 19.2978C7.20949 19.1135 6.97307 18.7357 6.98062 18.3249C6.98879 17.9135 7.23842 17.5437 7.62386 17.3734L12.3548 15.2805C12.9044 15.0357 13.1502 14.401 12.8987 13.8675C12.6478 13.3322 11.9933 13.096 11.4418 13.3389L2.84008 17.1439C2.41377 17.3325 2.15723 17.7646 2.2025 18.2181L3.11989 27.3515C3.14882 27.6347 3.28966 27.8898 3.51603 28.0711C3.74239 28.2511 4.02282 28.3293 4.32087 28.3085C4.67361 28.2756 4.98926 28.0772 5.16658 27.7793C5.28165 27.5859 5.33069 27.3661 5.30806 27.1421L4.80377 22.1201C4.76227 21.7094 4.96977 21.312 5.33572 21.1002C5.70167 20.8909 6.16006 20.9025 6.5128 21.1338C6.53544 21.1484 6.60209 21.196 6.62284 21.2119L16.0753 26.4982C16.601 26.7918 16.7814 27.4449 16.4784 27.9545C16.1747 28.4648 15.5019 28.6399 14.9775 28.3464L7.20006 23.9933L7.49559 26.937C7.56224 27.6054 7.41511 28.2652 7.07053 28.845C6.53984 29.7392 5.59101 30.3325 4.5334 30.4313C4.42399 30.4417 4.31584 30.4466 4.20706 30.4466Z"
              fill="#E99531"/>
        <path id="Vector_7"
              d="M29 47.4333C20.5171 47.4333 13.6162 40.7341 13.6162 32.4997C13.6162 24.2654 20.5171 17.5662 29 17.5662C37.4835 17.5662 44.3844 24.2654 44.3844 32.4997C44.3844 40.7341 37.4835 47.4333 29 47.4333ZM29 19.7C21.7294 19.7 15.8138 25.4416 15.8138 32.4997C15.8138 39.5585 21.7294 45.3001 29 45.3001C36.2712 45.3001 42.1868 39.5585 42.1868 32.4997C42.1868 25.4416 36.2712 19.7 29 19.7ZM29 41.0331C24.1527 41.0331 20.209 37.205 20.209 32.4997C20.209 27.7945 24.1527 23.9664 29 23.9664C33.8479 23.9664 37.791 27.7945 37.791 32.4997C37.791 37.205 33.8479 41.0331 29 41.0331ZM29 26.0995C25.3644 26.0995 22.4072 28.9707 22.4072 32.4997C22.4072 36.0288 25.3644 38.8999 29 38.8999C32.6356 38.8999 35.5934 36.0288 35.5934 32.4997C35.5934 28.9707 32.6356 26.0995 29 26.0995Z"
              fill="#999999"/>
    </g>
</svg>
