<svg width="64" height="65" viewBox="0 0 64 65" fill="none" xmlns="http://www.w3.org/2000/svg">
    <g id="106-user" clip-path="url(#clip0_230_4220)">
        <path id="Vector"
              d="M24.7746 40.7563C24.2046 40.7563 23.7421 40.2944 23.7421 39.7238V35.5945H16.5165V39.7238C16.5165 40.2944 16.0546 40.7563 15.484 40.7563C14.914 40.7563 14.4521 40.2944 14.4521 39.7238V34.5626C14.4521 33.992 14.914 33.5301 15.484 33.5301H24.7746C25.3446 33.5301 25.807 33.992 25.807 34.5626V39.7238C25.807 40.2944 25.3446 40.7563 24.7746 40.7563Z"
              fill="#E99531"/>
        <path id="Vector_2"
              d="M40.2578 54.1755H0V48.0191C0 43.9588 3.76902 40.6499 8.4199 40.6092L10.7176 40.23L11.0543 42.266L8.50732 42.6736C4.95448 42.6736 2.06437 45.0716 2.06437 48.0191V52.1106H38.1934V48.0191C38.1934 45.0716 35.3033 42.6736 31.7511 42.6736L31.5827 42.6594L29.0931 42.2477L29.4298 40.2117L31.8385 40.6086C36.4888 40.6499 40.2578 43.9588 40.2578 48.0191V54.1755Z"
              fill="#E99531"/>
        <path id="Vector_3"
              d="M25.6695 35.5945H14.5899C11.6678 35.5945 9.29102 33.2177 9.29102 30.2962V21.1433C9.29102 15.4517 13.9212 10.8203 19.6134 10.8203H20.6459C26.3375 10.8203 30.9683 15.4517 30.9683 21.1433V30.2962C30.9683 33.2177 28.5909 35.5945 25.6695 35.5945ZM19.6134 12.8853C15.06 12.8853 11.3554 16.5893 11.3554 21.1433V30.2962C11.3554 32.0794 12.8066 33.5301 14.5899 33.5301H25.6695C27.4527 33.5301 28.904 32.0794 28.904 30.2962V21.1433C28.904 16.5893 25.1993 12.8853 20.6459 12.8853H19.6134Z"
              fill="#E99531"/>
        <path id="Vector_4"
              d="M11.3547 45.9175C11.174 45.9175 10.9927 45.8697 10.8308 45.7752C10.516 45.5897 10.3223 45.2512 10.3223 44.885V39.7238C10.3223 39.1532 10.7848 38.6913 11.3547 38.6913H20.6453C21.1154 38.6913 21.526 39.0091 21.6447 39.4645C21.7622 39.9205 21.5573 40.3984 21.1462 40.6258L11.8562 45.7876C11.6997 45.8738 11.5272 45.9175 11.3547 45.9175ZM12.3872 40.7563V43.1308L16.6613 40.7563H12.3872Z"
              fill="#E99531"/>
        <path id="Vector_5"
              d="M28.9032 45.9175C28.7307 45.9175 28.5576 45.8738 28.4017 45.7876L19.1112 40.6258C18.7001 40.3984 18.4951 39.9205 18.6132 39.4645C18.7314 39.0091 19.1425 38.6913 19.6126 38.6913H28.9032C29.4732 38.6913 29.935 39.1532 29.935 39.7238V44.885C29.935 45.2512 29.7413 45.5897 29.4265 45.7752C29.2646 45.8697 29.0839 45.9175 28.9032 45.9175ZM23.5961 40.7563L27.8707 43.1308V40.7563H23.5961Z"
              fill="#E99531"/>
        <path id="Vector_6"
              d="M52.6449 34.5626C46.3839 34.5626 41.29 29.4687 41.29 23.2077C41.29 16.9467 46.3839 11.8528 52.6449 11.8528C58.906 11.8528 63.9998 16.9467 63.9998 23.2077C63.9998 29.4687 58.906 34.5626 52.6449 34.5626ZM52.6449 13.9171C47.5221 13.9171 43.3544 18.0843 43.3544 23.2077C43.3544 28.3305 47.5221 32.4982 52.6449 32.4982C57.7678 32.4982 61.9355 28.3305 61.9355 23.2077C61.9355 18.0843 57.7678 13.9171 52.6449 13.9171Z"
              fill="#E99531"/>
        <path id="Vector_7"
              d="M60.3868 43.8525H44.9031C42.9108 43.8525 41.29 42.2318 41.29 40.24C41.29 38.2477 42.9108 36.627 44.9031 36.627H60.3868C62.3791 36.627 63.9998 38.2477 63.9998 40.24C63.9998 42.2318 62.3791 43.8525 60.3868 43.8525ZM44.9031 38.6913C44.049 38.6913 43.3544 39.3859 43.3544 40.24C43.3544 41.0941 44.049 41.7882 44.9031 41.7882H60.3868C61.2409 41.7882 61.9355 41.0941 61.9355 40.24C61.9355 39.3859 61.2409 38.6913 60.3868 38.6913H44.9031Z"
              fill="#E99531"/>
        <path id="Vector_8"
              d="M60.3868 54.1756H44.9031C42.9108 54.1756 41.29 52.5548 41.29 50.5625C41.29 48.5708 42.9108 46.9494 44.9031 46.9494H60.3868C62.3791 46.9494 63.9998 48.5708 63.9998 50.5625C63.9998 52.5548 62.3791 54.1756 60.3868 54.1756ZM44.9031 49.0144C44.049 49.0144 43.3544 49.7084 43.3544 50.5625C43.3544 51.4166 44.049 52.1106 44.9031 52.1106H60.3868C61.2409 52.1106 61.9355 51.4166 61.9355 50.5625C61.9355 49.7084 61.2409 49.0144 60.3868 49.0144H44.9031Z"
              fill="#E99531"/>
        <path id="Vector_9"
              d="M60.3868 49.0143H44.9031C42.9108 49.0143 41.29 47.3929 41.29 45.4012C41.29 43.4089 42.9108 41.7881 44.9031 41.7881H60.3868C62.3791 41.7881 63.9998 43.4089 63.9998 45.4012C63.9998 47.3929 62.3791 49.0143 60.3868 49.0143ZM44.9031 43.8525C44.049 43.8525 43.3544 44.5471 43.3544 45.4012C43.3544 46.2553 44.049 46.9494 44.9031 46.9494H60.3868C61.2409 46.9494 61.9355 46.2553 61.9355 45.4012C61.9355 44.5471 61.2409 43.8525 60.3868 43.8525H44.9031Z"
              fill="#E99531"/>
        <path id="Vector_10"
              d="M49.6689 18.3932C49.6689 18.3076 49.7256 18.2509 49.8107 18.2509H53.4013C55.445 18.2509 56.4102 19.2721 56.4102 20.8196C56.4102 21.9124 55.8987 22.5361 55.2891 22.8627V22.8911C55.8845 23.1191 56.5803 23.8852 56.5803 25.0624C56.5803 26.9785 55.3742 27.9011 53.259 27.9011H49.8107C49.7256 27.9011 49.6689 27.8444 49.6689 27.7588V18.3932ZM53.3588 22.2668C54.2106 22.2668 54.7351 21.7558 54.7351 21.0039C54.7351 20.2378 54.2106 19.7269 53.3588 19.7269H51.4285C51.3712 19.7269 51.3435 19.7547 51.3435 19.8114V22.1823C51.3435 22.239 51.3712 22.2668 51.4285 22.2668H53.3588ZM51.4285 26.4256H53.4439C54.3807 26.4256 54.9052 25.8864 54.9052 25.0766C54.9052 24.2821 54.3807 23.7428 53.4439 23.7428H51.4285C51.3712 23.7428 51.3435 23.7712 51.3435 23.8285V26.3394C51.3435 26.3973 51.3712 26.4256 51.4285 26.4256Z"
              fill="#E99531"/>
        <path id="Vector_11"
              d="M52.1285 19.0783C51.8433 19.0783 51.6123 18.8474 51.6123 18.5627V17.5302C51.6123 17.2449 51.8433 17.014 52.1285 17.014C52.4138 17.014 52.6448 17.2449 52.6448 17.5302V18.5627C52.6448 18.8474 52.4138 19.0783 52.1285 19.0783Z"
              fill="#E99531"/>
        <path id="Vector_12"
              d="M52.1285 29.4014C51.8433 29.4014 51.6123 29.1704 51.6123 28.8851V27.8527C51.6123 27.5674 51.8433 27.3364 52.1285 27.3364C52.4138 27.3364 52.6448 27.5674 52.6448 27.8527V28.8851C52.6448 29.1704 52.4138 29.4014 52.1285 29.4014Z"
              fill="#E99531"/>
    </g>
    <defs>
        <clipPath id="clip0_230_4220">
            <rect width="64" height="64" fill="white" transform="translate(0 0.5)"/>
        </clipPath>
    </defs>
</svg>
