<svg width="76" height="77" viewBox="0 0 76 77" fill="none" xmlns="http://www.w3.org/2000/svg">
    <g id="icon" clip-path="url(#clip0_184_82702)">
        <g id="Group">
            <g id="Group_2">
                <path id="Vector"
                      d="M44.3446 20.5531C35.0002 18.5964 27.6964 11.3008 25.7378 1.96666C25.4972 0.820832 24.4855 0 23.3131 0C22.1407 0 21.129 0.820832 20.8885 1.96681C18.9298 11.3008 11.626 18.5962 2.28165 20.5527C1.1344 20.7929 0.3125 21.8036 0.3125 22.9746C0.3125 24.1455 1.13425 25.1563 2.28165 25.3965C11.6259 27.3532 18.9293 34.6486 20.8881 43.9826C21.1285 45.1286 22.1403 45.9496 23.3127 45.9496C24.4849 45.9496 25.4968 45.1288 25.7372 43.9826C27.6961 34.6486 35 27.3532 44.3444 25.3969C45.4917 25.1567 46.3136 24.1461 46.3136 22.975C46.3134 21.8041 45.4917 20.7933 44.3446 20.5531Z"
                      fill="#E99531"/>
            </g>
        </g>
        <g id="Group_3">
            <g id="Group_4">
                <path id="Vector_2"
                      d="M40.2506 61.4322C35.848 60.5104 32.4068 57.0731 31.4838 52.6751C31.2433 51.5291 30.2316 50.7081 29.0592 50.7081C27.8869 50.7081 26.875 51.5288 26.6346 52.6749C25.7115 57.0728 22.2702 60.5101 17.8676 61.432C16.7203 61.6722 15.8984 62.683 15.8984 63.8539C15.8984 65.0249 16.7202 66.0356 17.8676 66.2758C22.2701 67.1977 25.7114 70.6352 26.6343 75.0331C26.8747 76.179 27.8865 77 29.0589 77C30.2311 77 31.243 76.1793 31.4834 75.0331C32.4065 70.6352 35.8478 67.1979 40.2506 66.276C41.3978 66.0358 42.2197 65.025 42.2197 63.8541C42.2197 62.6831 41.398 61.6725 40.2506 61.4322Z"
                      fill="#E99531"/>
            </g>
        </g>
        <g id="Group_5">
            <g id="Group_6">
                <path id="Vector_3"
                      d="M73.7206 38.5203C67.7697 37.2741 63.1185 32.6279 61.8711 26.6838C61.6307 25.5378 60.6189 24.7168 59.4465 24.7168C58.2743 24.7168 57.2624 25.5375 57.0219 26.6836C55.7744 32.6279 51.1232 37.274 45.1723 38.5199C44.025 38.7601 43.2031 39.7709 43.2031 40.9418C43.2031 42.1128 44.0249 43.1234 45.1723 43.3637C51.1231 44.6099 55.7743 49.2559 57.0216 55.2002C57.2621 56.3462 58.2738 57.1672 59.4462 57.1672C60.6185 57.1672 61.6304 56.3465 61.8708 55.2002C63.1185 49.2559 67.7697 44.6099 73.7205 43.364C74.8677 43.1237 75.6896 42.1131 75.6896 40.9421C75.6896 39.7712 74.8679 38.7604 73.7206 38.5203Z"
                      fill="#E99531"/>
            </g>
        </g>
    </g>
    <defs>
        <clipPath id="clip0_184_82702">
            <rect width="76" height="77" fill="white"/>
        </clipPath>
    </defs>
</svg>
